<svg xmlns="http://www.w3.org/2000/svg" viewBox="0 0 175.1 239.38">
    <defs>
        <style>.cls-1{fill:#c8102e}.cls-2{fill:#43b02a}</style>
    </defs>
    <title>Ресурс 8</title>
    <g id="Слой_2" data-name="Слой 2">
        <g id="Слой_1-2" data-name="Слой 1">
            <g id="Symbols">
                <g id="Header-Fixed">
                    <g id="Group">
                        <path id="Fill-1" class="cls-1"
                              d="M64.36 236.89A84.75 84.75 0 0 1 49.14 77.74 13.38 13.38 0 1 1 60.4 102a58 58 0 1 0 70.5 17.49 13.4 13.4 0 0 1 21.34-16.2 84.75 84.75 0 0 1-87.85 133.6"/>
                        <path id="Fill-3" class="cls-2"
                              d="M167.65 50.8a13.39 13.39 0 1 0-11.88-24c-48.49 24-68.85 57.61-77.4 81.57-9.42 26.41-6.94 47.37-6.83 48.25.91 7.26 7.78 12.1 15 11.19A13.24 13.24 0 0 0 98 153.13c-.18-2.07-1.24-17.66 5.94-37 10.26-27.45 31.68-49.44 63.67-65.33"/>
                        <path id="Fill-5" class="cls-2"
                              d="M139.67 21.07s-19.87 24.79-46 26.22-48.56-21-48.56-21S65 1.5 91.11.07s48.56 21 48.56 21"/>
                    </g>
                </g>
            </g>
        </g>
    </g>
</svg>