<svg xmlns="http://www.w3.org/2000/svg" viewBox="0 0 524.64 250.52"><defs><style>.cls-1{fill:#3db21b}.cls-2{fill:#232323}.cls-3{fill:#b5092e}.cls-4{fill:#ca0828}.cls-5{fill:#4f9dce}.cls-6{fill:#b6e3f4}.cls-7{fill:#fff}.cls-8{fill:#4ae213}</style></defs><title>Ресурс 7</title><g id="Слой_2" data-name="Слой 2"><g id="Слой_1-2" data-name="Слой 1"><path class="cls-1" d="M502.26 159.08a1294.18 1294.18 0 0 1-479.91 0 22.52 22.52 0 0 1-18-26.3l.08-.39.09-.45a22.5 22.5 0 0 1 26.2-17.55 1248.71 1248.71 0 0 0 463.09 0 22.5 22.5 0 0 1 26.2 17.55l.09.45A22.52 22.52 0 0 1 502.65 159z"/><path class="cls-2" d="M262.3 185.61A1296.89 1296.89 0 0 1 21.61 163 26.52 26.52 0 0 1 .46 132l.09-.45.09-.45a26.62 26.62 0 0 1 30.86-20.64 1239.66 1239.66 0 0 0 461.6 0 26.62 26.62 0 0 1 30.9 20.67l.09.43a26.52 26.52 0 0 1-20.6 31.34l-.49.1a1296.88 1296.88 0 0 1-240.7 22.61zM26.63 118a18.61 18.61 0 0 0-18.15 14.75l-.09.45a18.52 18.52 0 0 0 14.33 21.93l.37.07a1285 1285 0 0 0 478.43 0 18.52 18.52 0 0 0 14.79-21.62l-.08-.38-.09-.43a18.59 18.59 0 0 0-21.54-14.44 1247.62 1247.62 0 0 1-464.57 0 18.27 18.27 0 0 0-3.4-.33zm475.63 41.08z"/><path class="cls-3" d="M436.23 169.78L345 228.37a114.54 114.54 0 0 1-61.88 18.15h-41.6a114.54 114.54 0 0 1-61.88-18.15l-91.27-58.59a1294 1294 0 0 0 347.86 0z"/><path class="cls-4" d="M375.6 169.78l-59.45 58.59c-12 11.85-26 18.15-40.31 18.15h-27.08c-14.29 0-28.28-6.3-40.31-18.15L149 169.78a552.45 552.45 0 0 0 226.6 0z"/><path class="cls-2" d="M283.09 250.52h-41.57a118.32 118.32 0 0 1-64-18.79l-91.31-58.58a4 4 0 0 1 2.7-7.33 1290.14 1290.14 0 0 0 346.78 0 4 4 0 0 1 2.7 7.33l-91.26 58.59a118.32 118.32 0 0 1-64.04 18.78zM105.49 176l76.31 49a110.33 110.33 0 0 0 59.72 17.52h41.57A110.33 110.33 0 0 0 342.81 225l76.31-49a1298 1298 0 0 1-313.63 0z"/><path class="cls-3" d="M477.3 117.4q-32.1 5.6-64.4 9.53a1247.74 1247.74 0 0 1-301.19 0q-32.29-3.93-64.4-9.53l131.18-45.64h167.63z"/><path class="cls-4" d="M412.9 126.93a1247.74 1247.74 0 0 1-301.19 0l87.64-55.16h125.91z"/><path class="cls-2" d="M262.3 140.1a1251.64 1251.64 0 0 1-215.68-18.76 4 4 0 0 1-.62-7.72L177.18 68a4 4 0 0 1 1.31-.22h167.63a4 4 0 0 1 1.31.22l131.18 45.63a4 4 0 0 1-.63 7.72A1251.64 1251.64 0 0 1 262.3 140.1zM63.37 116a1240.47 1240.47 0 0 0 397.88 0L345.44 75.76H179.17z"/><path class="cls-5" d="M278.35 4h-32.1a67.76 67.76 0 0 0-67.76 67.76h167.63A67.76 67.76 0 0 0 278.36 4z"/><path class="cls-6" d="M260.24 4h4.13a56.78 56.78 0 0 1 56.78 56.78v11H203.46v-11A56.78 56.78 0 0 1 260.24 4z"/><path class="cls-2" d="M346.12 75.76H178.49a4 4 0 0 1-4-4A71.85 71.85 0 0 1 246.26 0h32.1a71.85 71.85 0 0 1 71.76 71.76 4 4 0 0 1-4 4zm-163.5-8H342A63.85 63.85 0 0 0 278.35 8h-32.1a63.85 63.85 0 0 0-63.63 59.76z"/><ellipse class="cls-7" cx="280.58" cy="37.44" rx="28.98" ry="12.93"/><path class="cls-1" d="M80.08 141.63a18 18 0 1 1-12.75-17.26 18 18 0 0 1 12.75 17.26z"/><path class="cls-8" d="M69.39 132.71A18.06 18.06 0 0 1 46 150a18.06 18.06 0 0 1 21.3-25.61 17.89 17.89 0 0 1 2.09 8.32z"/><path class="cls-2" d="M62 163.68a22 22 0 1 1 22.1-22 22 22 0 0 1-22.1 22zm0-36.11a14.05 14.05 0 1 0 14.1 14.06A14.05 14.05 0 0 0 62 127.57z"/><path class="cls-1" d="M177.41 153.34a18 18 0 1 1-12.75-17.26 18 18 0 0 1 12.75 17.26z"/><path class="cls-8" d="M166.71 144.42a18.07 18.07 0 0 1-23.36 17.26 18.06 18.06 0 0 1 21.31-25.61 17.89 17.89 0 0 1 2.05 8.35z"/><path class="cls-2" d="M159.36 175.39a22 22 0 1 1 22.05-22.05 22 22 0 0 1-22.05 22.05zm0-36.11a14.05 14.05 0 1 0 14.05 14.05 14.05 14.05 0 0 0-14.05-14.05z"/><path class="cls-1" d="M444.52 141.63a18 18 0 1 0 12.75-17.26 18 18 0 0 0-12.75 17.26z"/><path class="cls-8" d="M455.22 132.71A18.06 18.06 0 0 0 478.58 150a18.06 18.06 0 0 0-21.31-25.61 17.89 17.89 0 0 0-2.05 8.32z"/><path class="cls-2" d="M462.58 163.68a22 22 0 1 1 22-22.05 22.08 22.08 0 0 1-22 22.05zm0-36.11a14.05 14.05 0 1 0 14 14.05 14.07 14.07 0 0 0-14-14z"/><path class="cls-1" d="M347.19 153.34A18 18 0 1 0 360 136.07a18 18 0 0 0-12.81 17.27z"/><path class="cls-8" d="M357.89 144.42a18.07 18.07 0 0 0 23.36 17.26A18.06 18.06 0 0 0 360 136.07a17.89 17.89 0 0 0-2.11 8.35z"/><path class="cls-2" d="M365.25 175.39a22 22 0 1 1 22-22.05 22.08 22.08 0 0 1-22 22.05zm0-36.11a14.05 14.05 0 1 0 14 14.05 14.07 14.07 0 0 0-14-14.05z"/><path class="cls-1" d="M280.36 157.46a18 18 0 1 1-12.75-17.26 18 18 0 0 1 12.75 17.26z"/><path class="cls-8" d="M269.66 148.54a18.07 18.07 0 0 1-23.36 17.26 18.06 18.06 0 0 1 21.31-25.61 17.89 17.89 0 0 1 2.05 8.35z"/><path class="cls-2" d="M262.31 179.51a22 22 0 1 1 22-22.05 22.08 22.08 0 0 1-22 22.05zm0-36.11a14.05 14.05 0 1 0 14 14.05 14.07 14.07 0 0 0-14-14z"/></g></g></svg>