<svg width="20" height="20" viewBox="0 0 20 20" fill="none" xmlns="http://www.w3.org/2000/svg">
<g clip-path="url(#clip0)">
<path d="M15.1051 11.8906C13.7149 11.8906 12.584 13.0215 12.584 14.4116C12.584 15.8018 13.7149 16.9327 15.1051 16.9327C16.4954 16.9327 17.6261 15.8018 17.6261 14.4116C17.6261 13.0215 16.4952 11.8906 15.1051 11.8906ZM15.1051 15.6721C14.4099 15.6721 13.8445 15.1068 13.8445 14.4116C13.8445 13.7165 14.4099 13.1511 15.1051 13.1511C15.8002 13.1511 16.3656 13.7165 16.3656 14.4116C16.3656 15.1068 15.8002 15.6721 15.1051 15.6721Z" fill="white"/>
<path d="M6.49165 11.8906C5.10153 11.8906 3.97063 13.0215 3.97063 14.4116C3.97063 15.8018 5.10153 16.9327 6.49165 16.9327C7.88177 16.9327 9.01267 15.8018 9.01267 14.4116C9.01267 13.0215 7.88177 11.8906 6.49165 11.8906ZM6.49165 15.6721C5.79649 15.6721 5.23114 15.1068 5.23114 14.4116C5.23114 13.7165 5.79649 13.1511 6.49165 13.1511C7.18661 13.1511 7.75216 13.7165 7.75216 14.4116C7.75216 15.1068 7.18681 15.6721 6.49165 15.6721Z" fill="white"/>
<path d="M16.8028 4.67471C16.6956 4.46189 16.4778 4.32764 16.2395 4.32764H12.9202V5.58814H15.8509L17.567 9.00158L18.6935 8.43517L16.8028 4.67471Z" fill="white"/>
<path d="M13.2144 13.8025H8.44545V15.063H13.2144V13.8025Z" fill="white"/>
<path d="M4.60083 13.8025H2.41599C2.06786 13.8025 1.78575 14.0846 1.78575 14.4327C1.78575 14.7809 2.0679 15.063 2.41599 15.063H4.60087C4.94899 15.063 5.2311 14.7808 5.2311 14.4327C5.2311 14.0846 4.94895 13.8025 4.60083 13.8025Z" fill="white"/>
<path d="M19.8677 9.94948L18.628 8.35284C18.5089 8.19905 18.3251 8.10913 18.1303 8.10913H13.5504V3.69737C13.5504 3.34925 13.2683 3.06714 12.9202 3.06714H2.41599C2.06786 3.06714 1.78575 3.34929 1.78575 3.69737C1.78575 4.04546 2.0679 4.32761 2.41599 4.32761H12.2899V8.73936C12.2899 9.08749 12.5721 9.3696 12.9202 9.3696H17.8217L18.7395 10.5519V13.8024H16.9958C16.6477 13.8024 16.3656 14.0845 16.3656 14.4326C16.3656 14.7807 16.6477 15.0628 16.9958 15.0628H19.3697C19.7179 15.0628 20 14.7807 20 14.4326V10.336C20 10.1961 19.9534 10.06 19.8677 9.94948Z" fill="white"/>
<path d="M4.55878 10.6094H1.6596C1.31147 10.6094 1.02937 10.8915 1.02937 11.2396C1.02937 11.5877 1.31151 11.8698 1.6596 11.8698H4.55874C4.90687 11.8698 5.18898 11.5877 5.18898 11.2396C5.18902 10.8915 4.90687 10.6094 4.55878 10.6094Z" fill="white"/>
<path d="M6.0084 8.13013H0.630234C0.282148 8.13013 0 8.41227 0 8.7604C0 9.10852 0.282148 9.39063 0.630234 9.39063H6.0084C6.35652 9.39063 6.63863 9.10849 6.63863 8.7604C6.63863 8.41231 6.35652 8.13013 6.0084 8.13013Z" fill="white"/>
<path d="M7.03776 5.65137H1.6596C1.31147 5.65137 1.02937 5.93352 1.02937 6.2816C1.02937 6.62973 1.31151 6.91184 1.6596 6.91184H7.03776C7.38589 6.91184 7.668 6.62969 7.668 6.2816C7.66804 5.93352 7.38589 5.65137 7.03776 5.65137Z" fill="white"/>
</g>
<defs>
<clipPath id="clip0">
<rect width="20" height="20" fill="white"/>
</clipPath>
</defs>
</svg>
