<?xml version="1.0" standalone="no"?>
<!DOCTYPE svg PUBLIC "-//W3C//DTD SVG 20010904//EN"
 "http://www.w3.org/TR/2001/REC-SVG-20010904/DTD/svg10.dtd">
<svg version="1.0" xmlns="http://www.w3.org/2000/svg"
 width="626.000000pt" height="626.000000pt" viewBox="0 0 626.000000 626.000000"
 preserveAspectRatio="xMidYMid meet">
<metadata>
Created by potrace 1.14, written by Peter Selinger 2001-2017
</metadata>
<g transform="translate(0.000000,626.000000) scale(0.100000,-0.100000)"
fill="#000000" stroke="none">
<path d="M3420 5742 c-37 -18 -119 -113 -145 -169 -15 -32 -15 -36 4 -77 12
-23 21 -50 21 -60 0 -25 27 -73 45 -79 30 -12 14 -94 -52 -274 l-37 -102 -65
-7 c-74 -8 -316 9 -431 30 -221 41 -261 46 -390 46 -218 0 -399 -42 -569 -130
-151 -79 -267 -186 -502 -460 -64 -74 -151 -168 -194 -208 -43 -40 -76 -74
-74 -76 2 -2 39 -22 82 -46 42 -23 77 -48 77 -56 0 -17 43 -39 95 -48 80 -13
95 -18 90 -26 -17 -28 80 -60 182 -60 45 0 65 -6 94 -26 48 -33 121 -40 243
-24 74 10 99 10 110 1 28 -23 116 -24 196 -1 160 45 176 48 195 37 31 -17 117
10 191 60 55 37 78 46 114 47 49 1 77 17 165 93 27 24 55 43 61 43 23 0 158
183 203 275 39 81 56 134 91 300 19 89 37 149 50 165 37 46 98 163 136 257 20
52 38 92 40 90 8 -7 -18 -290 -36 -406 -48 -293 -143 -588 -262 -811 -93 -175
-297 -460 -396 -554 l-31 -28 -59 36 c-174 105 -453 217 -646 258 -322 68
-665 -15 -943 -229 -141 -107 -247 -243 -350 -447 -124 -247 -167 -423 -166
-681 0 -240 46 -430 151 -629 95 -180 252 -354 414 -460 306 -199 746 -311
1086 -277 277 28 552 141 734 300 l45 40 18 -47 c55 -145 151 -295 267 -413
291 -298 727 -433 1226 -378 691 75 1156 477 1278 1104 24 121 24 393 0 524
-57 314 -211 582 -415 720 -87 59 -227 124 -336 155 -102 30 -291 66 -344 66
-75 0 -78 4 -86 88 -40 455 -153 890 -315 1221 -171 349 -370 638 -598 873
l-105 108 -4 62 c-2 35 -4 82 -3 105 0 30 -7 49 -25 71 -24 28 -49 115 -37
127 13 13 -57 3 -88 -13z m27 -102 c-16 -23 -11 -73 7 -63 6 3 4 -2 -5 -11
-18 -20 -80 -32 -106 -21 -10 5 -21 7 -25 7 -5 -1 -8 2 -8 7 0 5 24 20 53 34
28 13 61 34 71 46 24 27 32 27 13 1z m38 -110 c4 -6 10 -8 15 -5 4 3 6 -4 3
-15 -4 -14 -21 -25 -56 -35 -66 -20 -74 -19 -82 6 -4 11 -5 21 -3 22 9 6 95
35 105 36 6 0 15 -4 18 -9z m-137 -38 c2 -7 -3 -12 -12 -12 -9 0 -16 7 -16 16
0 17 22 14 28 -4z m182 -32 c10 -18 6 -26 -23 -55 -19 -19 -43 -35 -53 -36
-11 0 -27 -2 -37 -4 -12 -2 -21 5 -26 18 -12 31 -4 45 28 52 14 3 40 14 56 25
37 25 42 25 55 0z m-55 -150 c16 -18 17 -34 11 -172 -21 -471 -172 -966 -399
-1306 -133 -198 -241 -326 -489 -579 l-169 -173 -59 0 c-32 0 -61 4 -64 9 -3
4 14 17 37 27 169 76 453 348 646 619 176 247 313 537 386 819 56 215 76 347
90 605 l7 113 -28 29 c-26 27 -26 29 -7 29 11 0 28 -9 38 -20z m224 -165 c148
-190 327 -471 440 -695 115 -226 178 -412 250 -740 53 -236 59 -271 71 -375
10 -93 50 -576 50 -606 0 -15 -66 -67 -74 -58 -2 2 0 29 5 59 13 91 10 311 -6
468 -56 542 -209 1053 -430 1439 -97 170 -300 475 -378 568 -37 44 -67 84 -67
89 0 17 59 -46 139 -149z m70 -190 c413 -618 560 -1029 646 -1801 l4 -41 -105
-7 c-140 -9 -324 -41 -448 -78 -166 -49 -281 -109 -466 -246 -17 -12 -22 -6
-57 60 -80 152 -259 356 -411 468 -34 25 -61 50 -62 56 0 5 14 23 31 40 17 16
58 63 92 104 217 268 411 667 507 1043 50 197 70 327 77 511 l6 150 29 -35
c16 -18 87 -119 157 -224z m-618 -318 c-6 -8 -9 -16 -6 -18 16 -17 -48 -160
-122 -273 -59 -90 -82 -116 -98 -110 -7 3 -27 -12 -45 -34 -45 -57 -110 -101
-147 -100 -17 1 -56 -13 -89 -32 -137 -77 -248 -121 -229 -90 9 14 -44 6 -129
-21 -104 -33 -265 -52 -251 -29 4 7 -45 9 -143 8 -108 -2 -153 0 -164 10 -8 7
-60 16 -115 22 -113 10 -136 17 -129 36 3 9 -12 16 -52 24 -143 29 -167 36
-167 48 0 7 -42 31 -93 54 -60 26 -89 44 -80 48 11 7 274 41 408 54 106 11
268 17 625 26 209 5 404 13 433 16 53 7 68 22 33 31 -32 8 -40 83 -10 83 6 0
7 -9 4 -21 -7 -20 -4 -21 21 -15 24 6 26 5 14 -9 -19 -22 4 -43 53 -49 l38 -5
-40 42 c-38 40 -39 42 -23 60 16 19 17 18 20 -12 2 -18 10 -35 18 -38 8 -3 14
-12 14 -20 0 -17 20 -14 104 18 119 44 265 167 317 264 13 25 28 45 33 45 5 0
3 -6 -3 -13z m-190 -24 c13 -16 12 -17 -3 -4 -17 13 -22 21 -14 21 2 0 10 -8
17 -17z m-40 -20 c13 -17 13 -17 -6 -3 -11 8 -22 16 -24 17 -2 2 0 3 6 3 6 0
17 -8 24 -17z m-46 -61 c-3 -3 -11 0 -18 7 -9 10 -8 11 6 5 10 -3 15 -9 12
-12z m40 -32 c14 -16 15 -20 4 -20 -16 0 -39 19 -39 32 0 14 16 9 35 -12z
m-79 -25 c8 10 17 15 21 11 12 -12 -35 -45 -56 -39 -11 3 -21 13 -24 23 -5 18
-4 18 20 3 24 -16 26 -16 39 2z m-85 -49 c-12 -12 -21 -25 -21 -29 0 -14 29
-6 39 10 5 10 13 15 17 10 10 -10 -26 -47 -46 -47 -26 0 -54 36 -45 57 8 17 8
17 12 0 4 -14 8 -16 19 -6 8 6 14 18 14 25 0 8 6 11 16 7 13 -5 12 -9 -5 -27z
m-246 -136 c3 -5 1 -10 -4 -10 -6 0 -11 5 -11 10 0 6 2 10 4 10 3 0 8 -4 11
-10z m-1084 -747 c-11 -5 -11 -7 0 -14 11 -7 12 -12 1 -29 -7 -12 -8 -20 -2
-20 5 0 10 -12 10 -26 0 -14 -4 -23 -10 -19 -5 3 -10 1 -10 -4 0 -6 3 -11 8
-11 4 0 7 -30 8 -67 0 -38 4 -78 8 -90 8 -21 6 -22 -22 -14 -33 10 -42 6 -42
-18 1 -18 34 -61 47 -61 4 0 14 9 21 20 15 24 39 26 64 3 22 -20 24 -69 2 -81
-14 -8 -14 -10 0 -22 13 -10 14 -16 5 -27 -9 -11 -7 -19 11 -38 19 -20 21 -28
11 -38 -9 -9 -14 -9 -21 3 -9 13 -14 7 -11 -12 0 -4 -8 -5 -18 -3 -19 3 -18 2
0 -51 23 -65 24 -105 4 -148 -29 -61 -120 -86 -175 -49 -46 30 -92 78 -112
116 -13 27 -24 37 -34 33 -55 -21 -73 170 -27 289 5 14 3 17 -10 12 -11 -4
-14 -2 -10 9 3 7 0 14 -6 14 -6 0 -11 9 -11 20 0 13 -5 18 -15 14 -8 -4 -15
-12 -15 -20 0 -8 -9 -14 -20 -14 -11 0 -20 -5 -20 -11 0 -8 -5 -7 -16 2 -9 7
-18 9 -22 3 -4 -5 -33 -48 -65 -96 -32 -49 -63 -88 -70 -88 -6 0 -2 7 9 15 18
14 17 14 -14 15 -31 0 -33 2 -29 29 7 45 87 160 165 238 109 109 247 193 377
228 50 14 82 18 56 8z m649 -212 c-19 -36 -12 -114 15 -168 49 -98 137 -178
279 -256 85 -46 48 -42 -67 8 -210 90 -337 211 -337 320 0 47 14 71 53 95 43
27 71 27 57 1z m-462 -72 l27 -2 -28 -4 c-22 -4 -27 -8 -22 -24 9 -29 -5 -23
-58 25 -32 29 -45 46 -37 51 6 4 22 -2 34 -14 27 -26 36 -26 36 -3 0 33 15 35
18 3 3 -26 8 -31 30 -32z m-120 9 c-7 -19 -38 -22 -38 -4 0 10 9 16 21 16 12
0 19 -5 17 -12z m47 -48 c16 -16 26 -33 22 -36 -8 -9 -66 38 -66 54 -1 20 13
14 44 -18z m1561 -252 c81 -105 181 -317 167 -354 -4 -10 -2 -15 4 -11 14 9 4
-102 -14 -140 -15 -33 -43 -36 -43 -4 0 14 -2 14 -10 1 -8 -12 -12 -11 -32 6
-13 11 -38 27 -55 34 -18 7 -33 16 -33 21 0 5 -12 12 -27 15 -50 13 -112 51
-101 62 6 6 6 12 -3 17 -7 5 -10 4 -6 -2 4 -6 0 -13 -8 -17 -32 -12 -23 15 20
64 55 62 70 90 84 160 14 66 3 138 -34 218 -14 30 -25 57 -25 61 1 8 61 -60
116 -131z m-337 -86 c1 -13 -10 -34 -24 -47 -20 -21 -34 -25 -77 -24 -85 1
-104 15 -29 21 54 4 68 9 88 32 12 15 23 39 24 54 0 24 1 25 9 7 5 -11 9 -30
9 -43z m-1650 -41 c17 -11 9 -37 -23 -76 -20 -24 -24 -26 -20 -9 6 25 -17 47
-40 38 -24 -9 -18 -60 8 -57 13 1 15 -2 7 -10 -16 -16 -41 10 -41 43 0 58 64
99 109 71z m3771 -27 c105 -24 190 -85 190 -138 0 -73 -126 -152 -250 -156
-83 -4 -225 2 -185 7 142 17 197 34 243 76 63 58 -8 158 -148 209 l-75 28 80
-6 c44 -3 109 -12 145 -20z m-3762 -79 c-29 -31 -49 -33 -21 -2 11 12 24 33
29 47 8 25 8 25 12 2 2 -14 -6 -32 -20 -47z m565 -30 c32 -8 74 -23 95 -34 45
-23 178 -140 174 -153 -1 -5 2 -7 8 -3 14 9 52 -14 44 -27 -4 -7 -3 -8 4 -4
17 10 74 -22 66 -37 -5 -9 -3 -9 7 1 16 15 33 16 23 0 -4 -6 -3 -8 2 -5 5 3
30 2 54 -3 96 -19 207 -39 240 -45 94 -16 180 -59 180 -90 0 -9 8 -22 18 -31
15 -13 17 -24 12 -67 -6 -41 -13 -56 -41 -79 -18 -15 -39 -28 -45 -28 -7 0
-14 -7 -18 -15 -4 -11 -11 -13 -30 -5 -17 6 -27 6 -32 -1 -3 -6 -12 -8 -20 -5
-8 3 -24 1 -36 -3 l-23 -9 25 -10 c15 -7 19 -11 9 -11 -9 -1 -26 7 -37 18 -14
11 -46 21 -87 25 -85 9 -126 17 -121 25 2 3 -13 7 -34 7 -20 1 -53 9 -71 17
-19 8 -57 23 -86 33 -29 10 -49 22 -46 27 3 6 1 7 -4 4 -14 -9 -114 33 -108
44 3 4 -3 7 -12 6 -32 -2 -165 85 -229 149 -80 82 -118 157 -111 220 2 24 13
54 23 65 35 39 115 48 207 24z m3902 -191 c68 -116 124 -302 131 -432 2 -42 6
-88 9 -102 3 -14 2 -37 -3 -51 -9 -23 -10 -23 -17 11 -8 34 -8 35 -17 10 -7
-19 -11 -21 -18 -11 -5 10 -10 -6 -15 -45 -15 -133 -22 -108 -22 91 -1 230
-18 376 -58 502 -12 40 -22 73 -20 73 2 0 15 -21 30 -46z m-2737 -40 c24 -7
59 -23 77 -36 42 -29 78 -88 65 -108 -8 -12 -10 -12 -10 3 0 10 -4 15 -10 12
-6 -4 -7 1 -3 11 4 12 3 15 -5 10 -14 -9 -70 20 -92 47 -9 11 -29 20 -47 21
-26 1 -30 4 -22 18 7 14 6 16 -6 12 -9 -4 -21 1 -29 11 -7 10 -18 15 -24 11
-7 -4 -12 -2 -12 4 0 12 45 6 118 -16z m-71 -30 c-3 -3 -12 -4 -19 -1 -8 3 -5
6 6 6 11 1 17 -2 13 -5z m1958 -62 c-6 -7 -45 19 -45 29 0 5 11 2 24 -8 13
-10 23 -19 21 -21z m45 34 c0 -2 -8 -10 -17 -17 -16 -13 -17 -12 -4 4 13 16
21 21 21 13z m-124 -35 c0 -11 -5 -17 -13 -14 -10 4 -11 9 -2 19 15 18 15 18
15 -5z m-83 -11 c-3 -12 -8 -19 -11 -16 -5 6 5 36 12 36 2 0 2 -9 -1 -20z
m694 -226 c-3 -3 -12 -4 -19 -1 -8 3 -5 6 6 6 11 1 17 -2 13 -5z m87 -43 c-5
-6 -34 20 -34 30 0 5 8 1 18 -8 10 -10 17 -20 16 -22z m-70 20 c4 -5 -3 -7
-14 -4 -23 6 -26 13 -6 13 8 0 17 -4 20 -9z m-46 -58 c-10 -2 -26 -2 -35 0
-10 3 -2 5 17 5 19 0 27 -2 18 -5z m33 -25 c-4 -13 -7 -29 -5 -36 1 -7 0 -8
-3 -1 -3 6 -14 -8 -24 -30 -17 -38 -49 -81 -49 -66 0 3 -13 -1 -30 -10 -39
-20 -113 -23 -134 -6 -31 26 -14 54 59 98 39 24 87 48 109 55 33 10 40 10 51
-5 12 -16 13 -16 18 3 3 11 8 20 11 20 3 0 2 -10 -3 -22z m-2952 9 c-2 -1 -13
-9 -24 -17 -19 -14 -19 -14 -6 3 7 9 18 17 24 17 6 0 8 -1 6 -3z m3024 -25
c-3 -12 -9 -19 -14 -16 -5 3 -3 14 3 24 15 24 19 21 11 -8z m-3011 -46 c7 4 8
3 4 -4 -9 -15 -56 6 -56 25 0 9 7 6 20 -7 12 -12 26 -18 32 -14z m2551 -78
c22 -11 23 -61 1 -96 -24 -41 -86 -80 -154 -98 -50 -13 -73 -13 -132 -4 -119
18 -163 49 -156 108 4 35 47 59 144 78 156 31 252 35 297 12z m693 -520 c-1
-15 5 -23 15 -22 11 1 15 -5 12 -17 -8 -28 -27 -23 -40 10 -8 21 -8 32 0 40
14 14 14 15 13 -11z m-116 -143 c0 -7 -30 -13 -34 -7 -3 4 4 9 15 9 10 1 19 0
19 -2z"/>
<path d="M3080 4500 c0 -5 -5 -9 -11 -7 -6 1 -14 -5 -16 -13 -4 -12 -3 -12 5
-2 5 8 13 13 18 12 5 -1 10 3 12 9 2 6 1 11 -2 11 -3 0 -6 -4 -6 -10z"/>
<path d="M2975 4410 c-4 -6 -11 -7 -17 -4 -7 4 -8 2 -4 -5 6 -9 11 -9 22 0 14
11 18 19 10 19 -3 0 -8 -5 -11 -10z"/>
<path d="M2993 4385 c0 -8 4 -12 9 -9 5 3 6 10 3 15 -9 13 -12 11 -12 -6z"/>
<path d="M1270 4150 c8 -5 20 -10 25 -10 6 0 3 5 -5 10 -8 5 -19 10 -25 10 -5
0 -3 -5 5 -10z"/>
<path d="M1454 3165 c-6 -15 2 -35 14 -35 18 1 32 18 26 33 -8 21 -33 22 -40
2z"/>
<path d="M840 3069 c0 -5 5 -7 10 -4 6 3 10 8 10 11 0 2 -4 4 -10 4 -5 0 -10
-5 -10 -11z"/>
<path d="M1067 2833 c-15 -14 -7 -43 12 -43 23 0 34 23 18 39 -13 13 -21 14
-30 4z"/>
<path d="M1690 2356 c4 -4 16 -4 26 2 16 9 14 10 -8 9 -15 -1 -23 -6 -18 -11z"/>
<path d="M2400 2316 c0 -2 7 -7 16 -10 8 -3 12 -2 9 4 -6 10 -25 14 -25 6z"/>
<path d="M2479 2253 c-13 -16 -12 -17 4 -4 9 7 17 15 17 17 0 8 -8 3 -21 -13z"/>
<path d="M1870 2230 c-8 -5 -10 -10 -5 -10 6 0 17 5 25 10 8 5 11 10 5 10 -5
0 -17 -5 -25 -10z"/>
<path d="M2112 2191 c-11 -6 -10 -10 4 -15 9 -3 19 -4 22 -1 3 3 0 5 -7 5 -7
0 -9 5 -6 10 7 12 4 12 -13 1z"/>
<path d="M2569 2153 c-13 -16 -12 -17 4 -4 16 13 21 21 13 21 -2 0 -10 -8 -17
-17z"/>
<path d="M2118 2153 c7 -3 16 -2 19 1 4 3 -2 6 -13 5 -11 0 -14 -3 -6 -6z"/>
</g>
</svg>
