<svg display="none" xmlns="http://www.w3.org/2000/svg">

    <!--  EmptyCart  -->
    <symbol id="cart"  viewBox="0 0 511.997 511.997">
        <g>
            <path d="M405.387,362.612c-35.202,0-63.84,28.639-63.84,63.84s28.639,63.84,63.84,63.84s63.84-28.639,63.84-63.84
			S440.588,362.612,405.387,362.612z M405.387,451.988c-14.083,0-25.536-11.453-25.536-25.536s11.453-25.536,25.536-25.536
			c14.083,0,25.536,11.453,25.536,25.536S419.47,451.988,405.387,451.988z"/>
        </g>
        <g>
            <path d="M507.927,115.875c-3.626-4.641-9.187-7.348-15.079-7.348H118.22l-17.237-72.12c-2.062-8.618-9.768-14.702-18.629-14.702
			H19.152C8.574,21.704,0,30.278,0,40.856s8.574,19.152,19.152,19.152h48.085l62.244,260.443
			c2.062,8.625,9.768,14.702,18.629,14.702h298.135c8.804,0,16.477-6.001,18.59-14.543l46.604-188.329
			C512.849,126.562,511.553,120.516,507.927,115.875z M431.261,296.85H163.227l-35.853-150.019h341.003L431.261,296.85z"/>
        </g>
        <g>
            <path d="M173.646,362.612c-35.202,0-63.84,28.639-63.84,63.84s28.639,63.84,63.84,63.84s63.84-28.639,63.84-63.84
			S208.847,362.612,173.646,362.612z M173.646,451.988c-14.083,0-25.536-11.453-25.536-25.536s11.453-25.536,25.536-25.536
			s25.536,11.453,25.536,25.536S187.729,451.988,173.646,451.988z"/>
        </g>
    </symbol>


    <!-- Star  -->
    <symbol id="star" viewBox="0 0 512 512">
        <g>
            <polygon points="512,197.816 325.961,185.585 255.898,9.569 185.835,185.585 0,197.816 142.534,318.842 95.762,502.431
			255.898,401.21 416.035,502.431 369.263,318.842 		"/>
        </g>
    </symbol>

    <symbol id="delivery" viewBox="0 0 20 20">
        <g>
            <path d="M15.1051 11.8906C13.7149 11.8906 12.584 13.0215 12.584 14.4116C12.584 15.8018 13.7149 16.9327 15.1051 16.9327C16.4954 16.9327 17.6261 15.8018 17.6261 14.4116C17.6261 13.0215 16.4952 11.8906 15.1051 11.8906ZM15.1051 15.6721C14.4099 15.6721 13.8445 15.1068 13.8445 14.4116C13.8445 13.7165 14.4099 13.1511 15.1051 13.1511C15.8002 13.1511 16.3656 13.7165 16.3656 14.4116C16.3656 15.1068 15.8002 15.6721 15.1051 15.6721Z" fill="white"/>
            <path d="M6.49165 11.8906C5.10153 11.8906 3.97063 13.0215 3.97063 14.4116C3.97063 15.8018 5.10153 16.9327 6.49165 16.9327C7.88177 16.9327 9.01267 15.8018 9.01267 14.4116C9.01267 13.0215 7.88177 11.8906 6.49165 11.8906ZM6.49165 15.6721C5.79649 15.6721 5.23114 15.1068 5.23114 14.4116C5.23114 13.7165 5.79649 13.1511 6.49165 13.1511C7.18661 13.1511 7.75216 13.7165 7.75216 14.4116C7.75216 15.1068 7.18681 15.6721 6.49165 15.6721Z" fill="white"/>
            <path d="M16.8028 4.67471C16.6956 4.46189 16.4778 4.32764 16.2395 4.32764H12.9202V5.58814H15.8509L17.567 9.00158L18.6935 8.43517L16.8028 4.67471Z" fill="white"/>
            <path d="M13.2144 13.8025H8.44545V15.063H13.2144V13.8025Z" fill="white"/>
            <path d="M4.60083 13.8025H2.41599C2.06786 13.8025 1.78575 14.0846 1.78575 14.4327C1.78575 14.7809 2.0679 15.063 2.41599 15.063H4.60087C4.94899 15.063 5.2311 14.7808 5.2311 14.4327C5.2311 14.0846 4.94895 13.8025 4.60083 13.8025Z" fill="white"/>
            <path d="M19.8677 9.94948L18.628 8.35284C18.5089 8.19905 18.3251 8.10913 18.1303 8.10913H13.5504V3.69737C13.5504 3.34925 13.2683 3.06714 12.9202 3.06714H2.41599C2.06786 3.06714 1.78575 3.34929 1.78575 3.69737C1.78575 4.04546 2.0679 4.32761 2.41599 4.32761H12.2899V8.73936C12.2899 9.08749 12.5721 9.3696 12.9202 9.3696H17.8217L18.7395 10.5519V13.8024H16.9958C16.6477 13.8024 16.3656 14.0845 16.3656 14.4326C16.3656 14.7807 16.6477 15.0628 16.9958 15.0628H19.3697C19.7179 15.0628 20 14.7807 20 14.4326V10.336C20 10.1961 19.9534 10.06 19.8677 9.94948Z" fill="white"/>
            <path d="M4.55878 10.6094H1.6596C1.31147 10.6094 1.02937 10.8915 1.02937 11.2396C1.02937 11.5877 1.31151 11.8698 1.6596 11.8698H4.55874C4.90687 11.8698 5.18898 11.5877 5.18898 11.2396C5.18902 10.8915 4.90687 10.6094 4.55878 10.6094Z" fill="white"/>
            <path d="M6.0084 8.13013H0.630234C0.282148 8.13013 0 8.41227 0 8.7604C0 9.10852 0.282148 9.39063 0.630234 9.39063H6.0084C6.35652 9.39063 6.63863 9.10849 6.63863 8.7604C6.63863 8.41231 6.35652 8.13013 6.0084 8.13013Z" fill="white"/>
            <path d="M7.03776 5.65137H1.6596C1.31147 5.65137 1.02937 5.93352 1.02937 6.2816C1.02937 6.62973 1.31151 6.91184 1.6596 6.91184H7.03776C7.38589 6.91184 7.668 6.62969 7.668 6.2816C7.66804 5.93352 7.38589 5.65137 7.03776 5.65137Z" fill="white"/>

        </g>
    </symbol>


    <!-- Menu  -->
    <symbol  viewBox="0 0 512 512" id="menu">
        <g>
            <path d="m464.883 64.267h-417.766c-25.98 0-47.117 21.136-47.117 47.149 0 25.98 21.137 47.117 47.117 47.117h417.766c25.98 0 47.117-21.137 47.117-47.117 0-26.013-21.137-47.149-47.117-47.149z"/>
            <path d="m464.883 208.867h-417.766c-25.98 0-47.117 21.136-47.117 47.149 0 25.98 21.137 47.117 47.117 47.117h417.766c25.98 0 47.117-21.137 47.117-47.117 0-26.013-21.137-47.149-47.117-47.149z"/>
            <path d="m464.883 353.467h-417.766c-25.98 0-47.117 21.137-47.117 47.149 0 25.98 21.137 47.117 47.117 47.117h417.766c25.98 0 47.117-21.137 47.117-47.117 0-26.012-21.137-47.149-47.117-47.149z"/>
        </g>
    </symbol>

    <!-- Menu close -->

    <symbol  viewBox="0 0 47.971 47.971" id="menu_close">
        <g>
            <path d="M28.228,23.986L47.092,5.122c1.172-1.171,1.172-3.071,0-4.242c-1.172-1.172-3.07-1.172-4.242,0L23.986,19.744L5.121,0.88
		c-1.172-1.172-3.07-1.172-4.242,0c-1.172,1.171-1.172,3.071,0,4.242l18.865,18.864L0.879,42.85c-1.172,1.171-1.172,3.071,0,4.242
		C1.465,47.677,2.233,47.97,3,47.97s1.535-0.293,2.121-0.879l18.865-18.864L42.85,47.091c0.586,0.586,1.354,0.879,2.121,0.879
		s1.535-0.293,2.121-0.879c1.172-1.171,1.172-3.071,0-4.242L28.228,23.986z"/>
        </g>
    </symbol>


    <!-- Bar chart for empty compare -->
    <symbol viewBox="0 0 512 512" id="bar_chart">
        <g>
            <path d="M462,112h-48c-27.57,0-50,22.43-50,50v300c0,27.57,22.43,50,50,50h48c27.57,0,50-22.43,50-50V162
			C512,134.43,489.57,112,462,112z M472,462c0,5.514-4.486,10-10,10h-48c-5.514,0-10-4.486-10-10V162c0-5.514,4.486-10,10-10h48
			c5.514,0,10,4.486,10,10V462z"/>
        </g>
        <g>
            <path d="M98,264H50c-27.57,0-50,22.43-50,50v148c0,27.57,22.43,50,50,50h48c27.57,0,50-22.43,50-50V314
			C148,286.43,125.57,264,98,264z M108,462c0,5.514-4.486,10-10,10H50c-5.514,0-10-4.486-10-10V314c0-5.514,4.486-10,10-10h48
			c5.514,0,10,4.486,10,10V462z"/>
        </g>
        <g>
            <path d="M280,0h-48c-27.57,0-50,22.43-50,50v412c0,27.57,22.43,50,50,50h48c27.57,0,50-22.43,50-50V50C330,22.43,307.57,0,280,0z
			 M290,462c0,5.514-4.486,10-10,10h-48c-5.514,0-10-4.486-10-10V50c0-5.514,4.486-10,10-10h48c5.514,0,10,4.486,10,10V462z"/>

        </g>
    </symbol>


    <!-- Heart  -->
    <symbol id="heart"  viewBox="0 0 512.001 512.001">
        <g>
            <path d="M33.715,203.459c1.012,0,2.041-0.145,3.06-0.45c12.056-3.605,25.076-4.386,38.699-2.325
				c5.816,0.885,11.26-3.126,12.141-8.95c0.881-5.825-3.125-11.261-8.95-12.142c-16.759-2.537-32.91-1.535-48.003,2.979
				c-5.643,1.687-8.849,7.63-7.162,13.274C24.884,200.472,29.124,203.459,33.715,203.459z"/>
            <path d="M142.689,380.013c3.283,0,6.435-1.519,8.478-4.197c35.685-46.767,53.792-74.24,60.175-103.888
				c4.481-20.799-0.427-41.985-13.461-58.126c-12.576-15.572-31.404-24.868-50.365-24.868c-23.463,0-43.846,13.554-57.119,37.578
				c-9.912-3.798-19.614-5.716-28.953-5.716c-26.816,0-48.934,16.021-57.719,41.813c-9.584,28.135-0.308,58.236,23.631,76.688
				c24.02,18.514,55.585,27.8,113.034,40.464C141.155,379.931,141.926,380.013,142.689,380.013z M40.381,322.402
				c-20.163-15.54-21.472-38.218-16.463-52.915c5.835-17.13,19.865-27.359,37.527-27.359c9.066,0,18.907,2.63,29.25,7.818
				c2.629,1.318,5.687,1.494,8.45,0.481c2.763-1.01,4.983-3.119,6.139-5.823c9.466-22.145,24.466-34.339,42.233-34.339
				c12.58,0,25.202,6.332,33.768,16.939c9.097,11.265,12.368,25.553,9.206,40.234c-5.3,24.616-21.159,49.113-52.156,90.016
				C88.251,346.24,60.321,337.774,40.381,322.402z"/>
            <path d="M84.488,297.933c-7.633-3.139-13.632-6.374-17.834-9.614c-1.2-0.925-2.14-2.515-2.288-3.869
				c-0.081-0.751,0.114-0.987,0.221-1.112c3.783-4.515,3.189-11.243-1.325-15.026c-4.514-3.782-11.243-3.19-15.026,1.326
				c-3.96,4.726-5.762,10.806-5.077,17.118c0.771,7.097,4.684,13.997,10.467,18.456c5.785,4.463,13.226,8.535,22.748,12.45
				c1.327,0.546,2.702,0.804,4.052,0.804c4.196,0,8.174-2.492,9.87-6.612C92.538,306.405,89.938,300.172,84.488,297.933z"/>
            <path d="M112.078,307.022c-0.789-0.215-1.581-0.436-2.367-0.656c-5.667-1.586-11.558,1.728-13.143,7.403
				c-1.585,5.673,1.729,11.558,7.403,13.141c0.827,0.231,1.661,0.464,2.492,0.691c0.94,0.256,1.886,0.378,2.815,0.378
				c4.689,0,8.989-3.118,10.283-7.861C121.111,314.436,117.76,308.572,112.078,307.022z"/>
            <path d="M470.515,279.141c-16.536,9.719-35.912,17.539-59.233,23.911c-5.683,1.553-9.031,7.417-7.479,13.1
				c1.296,4.741,5.593,7.858,10.283,7.858c0.931,0,1.877-0.123,2.819-0.38c25.163-6.874,46.235-15.411,64.418-26.097
				c5.079-2.984,6.777-9.521,3.792-14.601C482.131,277.854,475.592,276.156,470.515,279.141z"/>
            <path d="M262.316,296.407c1.921,3.305,5.445,5.308,9.221,5.308c0.325,0,0.65-0.015,0.977-0.045
				c93.845-8.613,145.767-16.978,187.022-41.219c48.176-28.305,59.275-79.441,48.903-117.564
				c-5.3-19.486-15.999-36.156-30.94-48.213c-16.272-13.13-36.952-20.07-59.806-20.07c-11.881,0-24.385,1.852-37.298,5.514
				c-16.644-46.564-50.501-73.997-92.164-73.997c-27.491,0-54.407,12.155-73.84,33.351c-19.924,21.729-29.448,50.357-26.82,80.614
				C191.714,167.756,214.975,214.924,262.316,296.407z M230.113,53.889c15.178-16.553,36.904-26.435,58.116-26.435
				c35.135,0,62.475,25.144,75.007,68.985c0.811,2.828,2.75,5.196,5.364,6.547c2.612,1.349,5.67,1.558,8.443,0.579
				c14.336-5.061,28.013-7.627,40.647-7.627c41.191,0,63.252,27.146,70.164,52.551c8.239,30.292-0.662,70.973-39.127,93.572
				c-36.81,21.628-85.032,29.645-171.384,37.74c-43.426-75.079-64.826-119.029-68.524-161.561
				C206.717,94.011,214.28,71.157,230.113,53.889z"/>
            <path d="M274.829,181.388c-2.479-5.343-8.82-7.667-14.165-5.185c-5.344,2.48-7.665,8.821-5.183,14.164
				c0.496,1.071,1.006,2.146,1.517,3.218c1.829,3.835,5.652,6.076,9.635,6.076c1.539,0,3.104-0.335,4.585-1.042
				c5.316-2.535,7.571-8.902,5.035-14.218C275.773,183.399,275.294,182.392,274.829,181.388z"/>
            <path d="M243.834,162.837c1.6,4.292,5.668,6.945,9.995,6.945c1.237,0,2.496-0.218,3.722-0.675
				c5.521-2.057,8.327-8.2,6.271-13.719c-5.851-15.702-9.328-29.506-10.331-41.029c-0.964-11.088,2.606-22.157,9.796-30.367
				c4.406-5.031,12.104-11.139,23.758-11.672c5.884-0.27,10.437-5.257,10.168-11.143S291.94,50.755,286.07,51.01
				c-14.951,0.685-28.741,7.406-38.832,18.929c-10.995,12.556-16.462,29.421-14.997,46.268
				C233.426,129.835,237.218,145.087,243.834,162.837z"/>
            <path d="M159.099,416.816c-1.314-5.743-7.029-9.335-12.777-8.017c-5.744,1.314-9.333,7.035-8.019,12.777
				c2.463,10.746,6.456,21.06,11.872,30.654c1.963,3.472,5.577,5.424,9.297,5.424c1.777,0,3.578-0.445,5.235-1.381
				c5.129-2.896,6.939-9.402,4.043-14.531C164.349,433.941,161.101,425.555,159.099,416.816z"/>
            <path d="M334.064,313.784c-20.003,0-38.775,10.061-53.713,28.57c-13.193-8.007-26.519-12.057-39.728-12.057
				c-24.486,0-46.152,14.595-56.549,38.09c-11.335,25.615-6.47,54.628,12.692,75.713c20.821,22.914,50.908,37.915,106.432,60.964
				c1.32,0.548,2.71,0.815,4.087,0.815c2.625,0,5.21-0.967,7.214-2.807c44.29-40.646,67.433-65.033,79.168-93.689
				c9.143-22.333,6.837-46.391-6.327-66.005C374.905,324.848,354.987,313.784,334.064,313.784z M373.926,401.302
				c-9.783,23.891-30.188,45.743-68.835,81.44c-48.528-20.328-75.178-33.882-92.537-52.987c-16.02-17.628-15.138-38.8-8.972-52.735
				c6.929-15.662,21.124-25.39,37.042-25.39c11.501,0,23.583,4.665,35.908,13.867c2.358,1.76,5.339,2.468,8.233,1.957
				c2.898-0.51,5.453-2.195,7.068-4.655c11.877-18.11,26.479-27.682,42.233-27.682c13.801,0,27.098,7.533,35.567,20.151
				C378.765,368.878,380.332,385.658,373.926,401.302z"/>
            <path d="M281.473,425.756c-0.704-0.35-1.412-0.703-2.112-1.055c-5.26-2.65-11.674-0.534-14.324,4.728
				c-2.647,5.261-0.531,11.674,4.729,14.324c0.734,0.369,1.475,0.738,2.212,1.105c1.525,0.758,3.143,1.118,4.739,1.118
				c3.921,0,7.695-2.17,9.56-5.921C288.897,434.781,286.747,428.379,281.473,425.756z"/>
            <path d="M256.272,411.305c-5.119-3.546-9.208-6.992-12.157-10.234c-2.008-2.212-2.356-6.131-1.771-7.275
				c3.258-4.888,1.95-11.495-2.931-14.771c-4.889-3.282-11.516-1.981-14.799,2.912c-6.362,9.478-4.734,24.184,3.714,33.481
				c4.035,4.438,9.348,8.954,15.791,13.42c1.854,1.284,3.971,1.901,6.067,1.901c3.381,0,6.703-1.602,8.777-4.591
				C262.318,421.306,261.114,414.66,256.272,411.305z"/>
        </g>
    </symbol>


</svg>