<svg display="none" xmlns="http://www.w3.org/2000/svg">

    <!--  EmptyCart  -->
    <symbol id="cart" viewBox="0 0 511.997 511.997">
        <g>
            <path d="M405.387,362.612c-35.202,0-63.84,28.639-63.84,63.84s28.639,63.84,63.84,63.84s63.84-28.639,63.84-63.84
			S440.588,362.612,405.387,362.612z M405.387,451.988c-14.083,0-25.536-11.453-25.536-25.536s11.453-25.536,25.536-25.536
			c14.083,0,25.536,11.453,25.536,25.536S419.47,451.988,405.387,451.988z"/>
        </g>
        <g>
            <path d="M507.927,115.875c-3.626-4.641-9.187-7.348-15.079-7.348H118.22l-17.237-72.12c-2.062-8.618-9.768-14.702-18.629-14.702
			H19.152C8.574,21.704,0,30.278,0,40.856s8.574,19.152,19.152,19.152h48.085l62.244,260.443
			c2.062,8.625,9.768,14.702,18.629,14.702h298.135c8.804,0,16.477-6.001,18.59-14.543l46.604-188.329
			C512.849,126.562,511.553,120.516,507.927,115.875z M431.261,296.85H163.227l-35.853-150.019h341.003L431.261,296.85z"/>
        </g>
        <g>
            <path d="M173.646,362.612c-35.202,0-63.84,28.639-63.84,63.84s28.639,63.84,63.84,63.84s63.84-28.639,63.84-63.84
			S208.847,362.612,173.646,362.612z M173.646,451.988c-14.083,0-25.536-11.453-25.536-25.536s11.453-25.536,25.536-25.536
			s25.536,11.453,25.536,25.536S187.729,451.988,173.646,451.988z"/>
        </g>
    </symbol>


    <!-- Star  -->
    <symbol id="star" viewBox="0 0 512 512">
        <g>
            <polygon points="512,197.816 325.961,185.585 255.898,9.569 185.835,185.585 0,197.816 142.534,318.842 95.762,502.431
			255.898,401.21 416.035,502.431 369.263,318.842 		"/>
        </g>
    </symbol>

    <!--  Delivery -->
    <symbol id="delivery" viewBox="0 0 20 20">
        <g>
            <path d="M15.1051 11.8906C13.7149 11.8906 12.584 13.0215 12.584 14.4116C12.584 15.8018 13.7149 16.9327 15.1051 16.9327C16.4954 16.9327 17.6261 15.8018 17.6261 14.4116C17.6261 13.0215 16.4952 11.8906 15.1051 11.8906ZM15.1051 15.6721C14.4099 15.6721 13.8445 15.1068 13.8445 14.4116C13.8445 13.7165 14.4099 13.1511 15.1051 13.1511C15.8002 13.1511 16.3656 13.7165 16.3656 14.4116C16.3656 15.1068 15.8002 15.6721 15.1051 15.6721Z"
                  fill="white"/>
            <path d="M6.49165 11.8906C5.10153 11.8906 3.97063 13.0215 3.97063 14.4116C3.97063 15.8018 5.10153 16.9327 6.49165 16.9327C7.88177 16.9327 9.01267 15.8018 9.01267 14.4116C9.01267 13.0215 7.88177 11.8906 6.49165 11.8906ZM6.49165 15.6721C5.79649 15.6721 5.23114 15.1068 5.23114 14.4116C5.23114 13.7165 5.79649 13.1511 6.49165 13.1511C7.18661 13.1511 7.75216 13.7165 7.75216 14.4116C7.75216 15.1068 7.18681 15.6721 6.49165 15.6721Z"
                  fill="white"/>
            <path d="M16.8028 4.67471C16.6956 4.46189 16.4778 4.32764 16.2395 4.32764H12.9202V5.58814H15.8509L17.567 9.00158L18.6935 8.43517L16.8028 4.67471Z"
                  fill="white"/>
            <path d="M13.2144 13.8025H8.44545V15.063H13.2144V13.8025Z" fill="white"/>
            <path d="M4.60083 13.8025H2.41599C2.06786 13.8025 1.78575 14.0846 1.78575 14.4327C1.78575 14.7809 2.0679 15.063 2.41599 15.063H4.60087C4.94899 15.063 5.2311 14.7808 5.2311 14.4327C5.2311 14.0846 4.94895 13.8025 4.60083 13.8025Z"
                  fill="white"/>
            <path d="M19.8677 9.94948L18.628 8.35284C18.5089 8.19905 18.3251 8.10913 18.1303 8.10913H13.5504V3.69737C13.5504 3.34925 13.2683 3.06714 12.9202 3.06714H2.41599C2.06786 3.06714 1.78575 3.34929 1.78575 3.69737C1.78575 4.04546 2.0679 4.32761 2.41599 4.32761H12.2899V8.73936C12.2899 9.08749 12.5721 9.3696 12.9202 9.3696H17.8217L18.7395 10.5519V13.8024H16.9958C16.6477 13.8024 16.3656 14.0845 16.3656 14.4326C16.3656 14.7807 16.6477 15.0628 16.9958 15.0628H19.3697C19.7179 15.0628 20 14.7807 20 14.4326V10.336C20 10.1961 19.9534 10.06 19.8677 9.94948Z"
                  fill="white"/>
            <path d="M4.55878 10.6094H1.6596C1.31147 10.6094 1.02937 10.8915 1.02937 11.2396C1.02937 11.5877 1.31151 11.8698 1.6596 11.8698H4.55874C4.90687 11.8698 5.18898 11.5877 5.18898 11.2396C5.18902 10.8915 4.90687 10.6094 4.55878 10.6094Z"
                  fill="white"/>
            <path d="M6.0084 8.13013H0.630234C0.282148 8.13013 0 8.41227 0 8.7604C0 9.10852 0.282148 9.39063 0.630234 9.39063H6.0084C6.35652 9.39063 6.63863 9.10849 6.63863 8.7604C6.63863 8.41231 6.35652 8.13013 6.0084 8.13013Z"
                  fill="white"/>
            <path d="M7.03776 5.65137H1.6596C1.31147 5.65137 1.02937 5.93352 1.02937 6.2816C1.02937 6.62973 1.31151 6.91184 1.6596 6.91184H7.03776C7.38589 6.91184 7.668 6.62969 7.668 6.2816C7.66804 5.93352 7.38589 5.65137 7.03776 5.65137Z"
                  fill="white"/>

        </g>
    </symbol>


    <!-- Menu  -->
    <symbol viewBox="0 0 512 512" id="menu">
        <g>
            <path d="m464.883 64.267h-417.766c-25.98 0-47.117 21.136-47.117 47.149 0 25.98 21.137 47.117 47.117 47.117h417.766c25.98 0 47.117-21.137 47.117-47.117 0-26.013-21.137-47.149-47.117-47.149z"/>
            <path d="m464.883 208.867h-417.766c-25.98 0-47.117 21.136-47.117 47.149 0 25.98 21.137 47.117 47.117 47.117h417.766c25.98 0 47.117-21.137 47.117-47.117 0-26.013-21.137-47.149-47.117-47.149z"/>
            <path d="m464.883 353.467h-417.766c-25.98 0-47.117 21.137-47.117 47.149 0 25.98 21.137 47.117 47.117 47.117h417.766c25.98 0 47.117-21.137 47.117-47.117 0-26.012-21.137-47.149-47.117-47.149z"/>
        </g>
    </symbol>

    <!-- Menu close -->

    <symbol viewBox="0 0 47.971 47.971" id="menu_close">
        <g>
            <path d="M28.228,23.986L47.092,5.122c1.172-1.171,1.172-3.071,0-4.242c-1.172-1.172-3.07-1.172-4.242,0L23.986,19.744L5.121,0.88
		c-1.172-1.172-3.07-1.172-4.242,0c-1.172,1.171-1.172,3.071,0,4.242l18.865,18.864L0.879,42.85c-1.172,1.171-1.172,3.071,0,4.242
		C1.465,47.677,2.233,47.97,3,47.97s1.535-0.293,2.121-0.879l18.865-18.864L42.85,47.091c0.586,0.586,1.354,0.879,2.121,0.879
		s1.535-0.293,2.121-0.879c1.172-1.171,1.172-3.071,0-4.242L28.228,23.986z"/>
        </g>
    </symbol>


    <!-- Bar chart for empty compare -->
    <symbol viewBox="0 0 512 512" id="bar_chart">
        <g>
            <path d="M462,112h-48c-27.57,0-50,22.43-50,50v300c0,27.57,22.43,50,50,50h48c27.57,0,50-22.43,50-50V162
			C512,134.43,489.57,112,462,112z M472,462c0,5.514-4.486,10-10,10h-48c-5.514,0-10-4.486-10-10V162c0-5.514,4.486-10,10-10h48
			c5.514,0,10,4.486,10,10V462z"/>
        </g>
        <g>
            <path d="M98,264H50c-27.57,0-50,22.43-50,50v148c0,27.57,22.43,50,50,50h48c27.57,0,50-22.43,50-50V314
			C148,286.43,125.57,264,98,264z M108,462c0,5.514-4.486,10-10,10H50c-5.514,0-10-4.486-10-10V314c0-5.514,4.486-10,10-10h48
			c5.514,0,10,4.486,10,10V462z"/>
        </g>
        <g>
            <path d="M280,0h-48c-27.57,0-50,22.43-50,50v412c0,27.57,22.43,50,50,50h48c27.57,0,50-22.43,50-50V50C330,22.43,307.57,0,280,0z
			 M290,462c0,5.514-4.486,10-10,10h-48c-5.514,0-10-4.486-10-10V50c0-5.514,4.486-10,10-10h48c5.514,0,10,4.486,10,10V462z"/>

        </g>
    </symbol>


    <!-- Heart  -->
    <symbol id="heart" viewBox="0 0 512.001 512.001">
        <g>
            <path d="M33.715,203.459c1.012,0,2.041-0.145,3.06-0.45c12.056-3.605,25.076-4.386,38.699-2.325
				c5.816,0.885,11.26-3.126,12.141-8.95c0.881-5.825-3.125-11.261-8.95-12.142c-16.759-2.537-32.91-1.535-48.003,2.979
				c-5.643,1.687-8.849,7.63-7.162,13.274C24.884,200.472,29.124,203.459,33.715,203.459z"/>
            <path d="M142.689,380.013c3.283,0,6.435-1.519,8.478-4.197c35.685-46.767,53.792-74.24,60.175-103.888
				c4.481-20.799-0.427-41.985-13.461-58.126c-12.576-15.572-31.404-24.868-50.365-24.868c-23.463,0-43.846,13.554-57.119,37.578
				c-9.912-3.798-19.614-5.716-28.953-5.716c-26.816,0-48.934,16.021-57.719,41.813c-9.584,28.135-0.308,58.236,23.631,76.688
				c24.02,18.514,55.585,27.8,113.034,40.464C141.155,379.931,141.926,380.013,142.689,380.013z M40.381,322.402
				c-20.163-15.54-21.472-38.218-16.463-52.915c5.835-17.13,19.865-27.359,37.527-27.359c9.066,0,18.907,2.63,29.25,7.818
				c2.629,1.318,5.687,1.494,8.45,0.481c2.763-1.01,4.983-3.119,6.139-5.823c9.466-22.145,24.466-34.339,42.233-34.339
				c12.58,0,25.202,6.332,33.768,16.939c9.097,11.265,12.368,25.553,9.206,40.234c-5.3,24.616-21.159,49.113-52.156,90.016
				C88.251,346.24,60.321,337.774,40.381,322.402z"/>
            <path d="M84.488,297.933c-7.633-3.139-13.632-6.374-17.834-9.614c-1.2-0.925-2.14-2.515-2.288-3.869
				c-0.081-0.751,0.114-0.987,0.221-1.112c3.783-4.515,3.189-11.243-1.325-15.026c-4.514-3.782-11.243-3.19-15.026,1.326
				c-3.96,4.726-5.762,10.806-5.077,17.118c0.771,7.097,4.684,13.997,10.467,18.456c5.785,4.463,13.226,8.535,22.748,12.45
				c1.327,0.546,2.702,0.804,4.052,0.804c4.196,0,8.174-2.492,9.87-6.612C92.538,306.405,89.938,300.172,84.488,297.933z"/>
            <path d="M112.078,307.022c-0.789-0.215-1.581-0.436-2.367-0.656c-5.667-1.586-11.558,1.728-13.143,7.403
				c-1.585,5.673,1.729,11.558,7.403,13.141c0.827,0.231,1.661,0.464,2.492,0.691c0.94,0.256,1.886,0.378,2.815,0.378
				c4.689,0,8.989-3.118,10.283-7.861C121.111,314.436,117.76,308.572,112.078,307.022z"/>
            <path d="M470.515,279.141c-16.536,9.719-35.912,17.539-59.233,23.911c-5.683,1.553-9.031,7.417-7.479,13.1
				c1.296,4.741,5.593,7.858,10.283,7.858c0.931,0,1.877-0.123,2.819-0.38c25.163-6.874,46.235-15.411,64.418-26.097
				c5.079-2.984,6.777-9.521,3.792-14.601C482.131,277.854,475.592,276.156,470.515,279.141z"/>
            <path d="M262.316,296.407c1.921,3.305,5.445,5.308,9.221,5.308c0.325,0,0.65-0.015,0.977-0.045
				c93.845-8.613,145.767-16.978,187.022-41.219c48.176-28.305,59.275-79.441,48.903-117.564
				c-5.3-19.486-15.999-36.156-30.94-48.213c-16.272-13.13-36.952-20.07-59.806-20.07c-11.881,0-24.385,1.852-37.298,5.514
				c-16.644-46.564-50.501-73.997-92.164-73.997c-27.491,0-54.407,12.155-73.84,33.351c-19.924,21.729-29.448,50.357-26.82,80.614
				C191.714,167.756,214.975,214.924,262.316,296.407z M230.113,53.889c15.178-16.553,36.904-26.435,58.116-26.435
				c35.135,0,62.475,25.144,75.007,68.985c0.811,2.828,2.75,5.196,5.364,6.547c2.612,1.349,5.67,1.558,8.443,0.579
				c14.336-5.061,28.013-7.627,40.647-7.627c41.191,0,63.252,27.146,70.164,52.551c8.239,30.292-0.662,70.973-39.127,93.572
				c-36.81,21.628-85.032,29.645-171.384,37.74c-43.426-75.079-64.826-119.029-68.524-161.561
				C206.717,94.011,214.28,71.157,230.113,53.889z"/>
            <path d="M274.829,181.388c-2.479-5.343-8.82-7.667-14.165-5.185c-5.344,2.48-7.665,8.821-5.183,14.164
				c0.496,1.071,1.006,2.146,1.517,3.218c1.829,3.835,5.652,6.076,9.635,6.076c1.539,0,3.104-0.335,4.585-1.042
				c5.316-2.535,7.571-8.902,5.035-14.218C275.773,183.399,275.294,182.392,274.829,181.388z"/>
            <path d="M243.834,162.837c1.6,4.292,5.668,6.945,9.995,6.945c1.237,0,2.496-0.218,3.722-0.675
				c5.521-2.057,8.327-8.2,6.271-13.719c-5.851-15.702-9.328-29.506-10.331-41.029c-0.964-11.088,2.606-22.157,9.796-30.367
				c4.406-5.031,12.104-11.139,23.758-11.672c5.884-0.27,10.437-5.257,10.168-11.143S291.94,50.755,286.07,51.01
				c-14.951,0.685-28.741,7.406-38.832,18.929c-10.995,12.556-16.462,29.421-14.997,46.268
				C233.426,129.835,237.218,145.087,243.834,162.837z"/>
            <path d="M159.099,416.816c-1.314-5.743-7.029-9.335-12.777-8.017c-5.744,1.314-9.333,7.035-8.019,12.777
				c2.463,10.746,6.456,21.06,11.872,30.654c1.963,3.472,5.577,5.424,9.297,5.424c1.777,0,3.578-0.445,5.235-1.381
				c5.129-2.896,6.939-9.402,4.043-14.531C164.349,433.941,161.101,425.555,159.099,416.816z"/>
            <path d="M334.064,313.784c-20.003,0-38.775,10.061-53.713,28.57c-13.193-8.007-26.519-12.057-39.728-12.057
				c-24.486,0-46.152,14.595-56.549,38.09c-11.335,25.615-6.47,54.628,12.692,75.713c20.821,22.914,50.908,37.915,106.432,60.964
				c1.32,0.548,2.71,0.815,4.087,0.815c2.625,0,5.21-0.967,7.214-2.807c44.29-40.646,67.433-65.033,79.168-93.689
				c9.143-22.333,6.837-46.391-6.327-66.005C374.905,324.848,354.987,313.784,334.064,313.784z M373.926,401.302
				c-9.783,23.891-30.188,45.743-68.835,81.44c-48.528-20.328-75.178-33.882-92.537-52.987c-16.02-17.628-15.138-38.8-8.972-52.735
				c6.929-15.662,21.124-25.39,37.042-25.39c11.501,0,23.583,4.665,35.908,13.867c2.358,1.76,5.339,2.468,8.233,1.957
				c2.898-0.51,5.453-2.195,7.068-4.655c11.877-18.11,26.479-27.682,42.233-27.682c13.801,0,27.098,7.533,35.567,20.151
				C378.765,368.878,380.332,385.658,373.926,401.302z"/>
            <path d="M281.473,425.756c-0.704-0.35-1.412-0.703-2.112-1.055c-5.26-2.65-11.674-0.534-14.324,4.728
				c-2.647,5.261-0.531,11.674,4.729,14.324c0.734,0.369,1.475,0.738,2.212,1.105c1.525,0.758,3.143,1.118,4.739,1.118
				c3.921,0,7.695-2.17,9.56-5.921C288.897,434.781,286.747,428.379,281.473,425.756z"/>
            <path d="M256.272,411.305c-5.119-3.546-9.208-6.992-12.157-10.234c-2.008-2.212-2.356-6.131-1.771-7.275
				c3.258-4.888,1.95-11.495-2.931-14.771c-4.889-3.282-11.516-1.981-14.799,2.912c-6.362,9.478-4.734,24.184,3.714,33.481
				c4.035,4.438,9.348,8.954,15.791,13.42c1.854,1.284,3.971,1.901,6.067,1.901c3.381,0,6.703-1.602,8.777-4.591
				C262.318,421.306,261.114,414.66,256.272,411.305z"/>
        </g>
    </symbol>

    <!--  Registration -->
    <symbol viewBox="0 0 512 512" id="registration">
        <g>
            <path d="m512 412c0 11.046875-8.953125 20-20 20h-60v60c0 11.046875-8.953125 20-20 20s-20-8.953125-20-20v-60h-60c-11.046875 0-20-8.953125-20-20s8.953125-20 20-20h60v-60c0-11.046875 8.953125-20 20-20s20 8.953125 20 20v60h60c11.046875 0 20 8.953125 20 20zm-160 80c0 11.046875-8.953125 20-20 20h-272c-33.085938 0-60-26.914062-60-60v-37c0-34.515625 14.804688-67.3125 40.613281-89.988281 20.894531-18.363281 60.910157-45.578125 125.238281-59.722657-35.15625-27.082031-57.851562-69.582031-57.851562-117.289062 0-81.605469 66.394531-148 148-148s148 66.394531 148 148-66.394531 148-148 148c-109.902344 0-168.777344 41.300781-188.984375 59.058594-17.167969 15.085937-27.015625 36.929687-27.015625 59.941406v37c0 11.027344 8.972656 20 20 20h272c11.046875 0 20 8.953125 20 20zm-96-236c59.550781 0 108-48.449219 108-108s-48.449219-108-108-108-108 48.449219-108 108 48.449219 108 108 108zm0 0"/>
        </g>
    </symbol>

    <!-- Login -->
    <symbol viewBox="0 0 512 512" id="login">
        <g>
            <path d="m512 60v392c0 33.085938-26.914062 60-60 60h-241c-33.085938 0-60-26.914062-60-60v-80h40v80c0 11.027344 8.972656 20 20 20h241c11.027344 0 20-8.972656 20-20v-392c0-11.027344-8.972656-20-20-20h-241c-11.027344 0-20 8.972656-20 20v80h-40v-80c0-33.085938 26.914062-60 60-60h241c33.085938 0 60 26.914062 60 60zm-299.285156 262 28.285156 28.285156 94.285156-94.285156-94.285156-94.285156-28.285156 28.285156 46 46h-258.714844v40h258.714844zm0 0"/>
        </g>
    </symbol>


    <!-- Shopping bag -->
    <symbol  viewBox="-23 0 512 512" id="shopping_bag">
        <g>
            <path d="m458.964844 511.855469c.128906-.027344.25-.058594.375-.09375.113281-.027344.226562-.050781.335937-.085938.121094-.035156.238281-.082031.359375-.125.113282-.039062.222656-.078125.332032-.121093.113281-.046876.222656-.101563.332031-.152344.109375-.054688.222656-.105469.335937-.164063.105469-.054687.203125-.121093.304688-.179687.109375-.066406.21875-.125.324218-.199219.109376-.074219.214844-.15625.320313-.234375.089844-.066406.179687-.128906.269531-.199219.179688-.148437.347656-.304687.511719-.464843.226563-.230469.386719-.402344.535156-.582032.070313-.089844.132813-.179687.199219-.269531.078125-.105469.160156-.210937.234375-.320313.074219-.109374.132813-.21875.199219-.328124.0625-.101563.125-.199219.179687-.300782.058594-.113281.113281-.230468.164063-.34375.050781-.105468.105468-.210937.152344-.320312.046874-.113282.082031-.230469.125-.34375.039062-.117188.085937-.230469.121093-.351563.035157-.113281.058594-.230469.089844-.347656.03125-.121094.0625-.238281.089844-.363281.027343-.136719.042969-.273438.058593-.40625.015626-.109375.035157-.210938.046876-.320313.023437-.246093.039062-.496093.039062-.742187v-376.996094c0-4.144531-3.359375-7.5-7.5-7.5h-82.5v-30c0-49.625-40.375-90-90-90-18.863281 0-37.28125 5.988281-52.515625 16.933594-14.785156-10.652344-32.914063-16.933594-52.484375-16.933594-49.625 0-90 40.375-90 90v30h-82.5c-4.140625 0-7.5 3.355469-7.5 7.5v377c0 4.144531 3.359375 7.5 7.5 7.5h450c.246094 0 .492188-.011719.738281-.035156.113281-.011719.222657-.035156.335938-.050782.128906-.019531.261719-.035156.390625-.058593zm-8.964844-25.460938-37.5-37.5v-144.144531c0-4.144531-3.359375-7.5-7.5-7.5s-7.5 3.355469-7.5 7.5v144.144531l-37.5 37.5v-351.394531h37.5v139.75c0 4.144531 3.359375 7.5 7.5 7.5s7.5-3.355469 7.5-7.5v-139.75h37.5zm-45-23.789062 34.394531 34.394531h-68.789062zm-135-342.605469v-30c0-13.695312-3.082031-26.6875-8.578125-38.320312 7.050781-4.335938 15.234375-6.679688 23.578125-6.679688 24.8125 0 45 20.1875 45 45v30zm90-30v30h-15v-30c0-33.085938-26.914062-60-60-60-10.988281 0-21.765625 3.054688-31.09375 8.703125-2.890625-4.152344-6.121094-8.050781-9.652344-11.652344 12.074219-7.808593 26.253906-12.050781 40.746094-12.050781 41.355469 0 75 33.644531 75 75zm-255 0c0-41.355469 33.644531-75 75-75s75 33.644531 75 75v67.5c0 4.136719-3.363281 7.5-7.5 7.5s-7.5-3.363281-7.5-7.5v-67.5c0-18.472656-8.398438-35.019531-21.570312-46.035156-.316407-.304688-.660157-.585938-1.035157-.835938-10.265625-8.207031-23.261719-13.128906-37.394531-13.128906-33.085938 0-60 26.914062-60 60v67.5c0 4.136719-3.363281 7.5-7.5 7.5s-7.5-3.363281-7.5-7.5zm30 30v-30c0-24.8125 20.1875-45 45-45 8.640625 0 16.714844 2.453125 23.578125 6.691406-5.621094 11.941406-8.578125 25.050782-8.578125 38.308594v30zm75-30c0-9.539062 1.835938-18.988281 5.351562-27.792969 6.035157 7.65625 9.648438 17.308594 9.648438 27.792969v30h-15zm-195 45h75v22.5c0 12.40625 10.09375 22.5 22.5 22.5s22.5-10.09375 22.5-22.5v-22.5h90v22.5c0 12.40625 10.09375 22.5 22.5 22.5s22.5-10.09375 22.5-22.5v-22.5h75v362h-330zm0 0"/>
        </g>
    </symbol>


    <!-- Book -->
    <symbol  viewBox="0 0 336.002 336.002" id="book">
        <g>
            <path d="M274.021,0h-92h-97.12c-23.365,0.043-42.326,18.915-42.48,42.28v251.44c0.154,23.365,19.115,42.237,42.48,42.28h189.24
			c5.196,0.077,10.207-1.924,13.92-5.56c3.543-3.64,5.524-8.52,5.52-13.6V19.56C293.559,8.766,284.815,0.022,274.021,0z M190.101,16
			h47v75.04l-16.68-26.6c-0.676-1.126-1.618-2.069-2.744-2.744c-3.789-2.273-8.703-1.045-10.976,2.744l-16.6,26.48V16z
			 M58.621,42.28C58.687,27.793,70.414,16.066,84.901,16h89.2v81.6c-0.301,6.495,3.777,12.39,9.96,14.4
			c7.04,2.12,13.36-2.44,17.12-8.44l12.44-20l12.44,20c3.72,5.92,10.04,10.48,17.28,8.44c6.154-2.002,10.224-7.854,9.96-14.32V16.2
			h20.84c1.847,0.022,3.338,1.513,3.36,3.36v231.995c-1.11-0.188-2.234-0.281-3.36-0.275H84.901
			c-9.543-0.003-18.806,3.226-26.28,9.16V42.28z M277.501,285.8L93.061,286c-4.418,0-8,3.582-8,8s3.582,8,8,8l184.44-0.2v14.88
			c0.008,0.895-0.336,1.758-0.96,2.4c-0.642,0.623-1.505,0.968-2.4,0.96H84.901c-14.525,0-26.3-11.775-26.3-26.3
			s11.775-26.3,26.3-26.3h189.24c1.847,0.022,3.338,1.513,3.36,3.36V285.8z"/>
        </g>
    </symbol>

    <!-- Exit -->
    <symbol  viewBox="0 0 512 512" id="exit">
        <g>
            <path d="M255.15,468.625H63.787c-11.737,0-21.262-9.526-21.262-21.262V64.638c0-11.737,9.526-21.262,21.262-21.262H255.15
			c11.758,0,21.262-9.504,21.262-21.262S266.908,0.85,255.15,0.85H63.787C28.619,0.85,0,29.47,0,64.638v382.724
			c0,35.168,28.619,63.787,63.787,63.787H255.15c11.758,0,21.262-9.504,21.262-21.262
			C276.412,478.129,266.908,468.625,255.15,468.625z"/>
        </g>
        <g>
            <path d="M505.664,240.861L376.388,113.286c-8.335-8.25-21.815-8.143-30.065,0.213s-8.165,21.815,0.213,30.065l92.385,91.173
			H191.362c-11.758,0-21.262,9.504-21.262,21.262c0,11.758,9.504,21.263,21.262,21.263h247.559l-92.385,91.173
			c-8.377,8.25-8.441,21.709-0.213,30.065c4.167,4.21,9.653,6.336,15.139,6.336c5.401,0,10.801-2.041,14.926-6.124l129.276-127.575
			c4.04-3.997,6.336-9.441,6.336-15.139C512,250.302,509.725,244.88,505.664,240.861z"/>
        </g>
    </symbol>

    <!--Bell -->
    <symbol viewBox="0 0 512 512" id="bell">
        <g>
            <path d="m46.081 100.681 8.33 23.423c.357 1.003 1.063 1.798 1.954 2.199l20.81 9.376c2.94 1.325 2.94 6.009 0 7.333l-20.81 9.376c-.891.401-1.597 1.196-1.954 2.199l-8.33 23.423c-1.177 3.309-5.339 3.309-6.515 0l-8.33-23.423c-.357-1.003-1.063-1.798-1.954-2.199l-20.81-9.376c-2.94-1.325-2.94-6.009 0-7.333l20.81-9.376c.891-.401 1.597-1.196 1.954-2.199l8.33-23.423c1.176-3.309 5.338-3.309 6.515 0z"/>
            <path d="m149.503 2.603 6.179 17.374c.265.744.788 1.333 1.449 1.631l15.437 6.955c2.181.983 2.181 4.457 0 5.44l-15.437 6.955c-.661.298-1.185.887-1.449 1.631l-6.179 17.375c-.873 2.455-3.96 2.455-4.833 0l-6.179-17.375c-.264-.744-.788-1.333-1.449-1.631l-15.437-6.955c-2.181-.983-2.181-4.457 0-5.44l15.437-6.955c.661-.298 1.185-.887 1.449-1.631l6.179-17.374c.873-2.455 3.96-2.455 4.833 0z"/>
            <ellipse cx="487.545" cy="81.71" rx="18.189" ry="18.189"
                     transform="matrix(.232 -.973 .973 .232 295.162 537.084)"/>
            <circle cx="61.488" cy="50.779" r="7.846"/>
        </g>
        <g>
            <path d="m448.657 154.689c-9.327-29.24-25.847-54.587-47.882-74.115l10.442-18.086c5.565-9.638 7.043-20.865 4.162-31.615-2.88-10.75-9.774-19.734-19.412-25.298-19.896-11.487-45.426-4.645-56.913 15.25l-12.774 22.125c-29.798-6.36-61.043-4.254-90.911 6.486-42.904 15.428-77.832 46.823-98.352 88.404-.082.167-.267.552-.548 1.137-8.102 16.897-24.6 50.009-44.067 81.933-16.867 27.66-29.766 44.212-39.318 54.099-15.752-4.269-32.88 3.045-40.37 18.223l-.395.802c-4.121 8.35-4.743 17.804-1.752 26.622s9.236 15.944 17.586 20.064l157.837 77.89c-4.368 8.688-6.837 18.486-6.837 28.855 0 35.584 28.95 64.534 64.534 64.534 25.46 0 47.511-14.827 58.004-36.294l41.839 20.646c4.946 2.441 10.196 3.596 15.371 3.596 12.86 0 25.25-7.138 31.314-19.427l.399-.808c6.964-14.112 3.459-30.705-7.498-40.927 2.003-14.594 7.574-37.088 20.532-71.598 15.894-42.328 34.492-80.288 34.677-80.661 20.518-41.579 24.188-88.401 10.332-131.837zm-92.038-123.725c2.856-4.946 7.466-8.484 12.983-9.962 1.842-.494 3.712-.738 5.569-.738 3.705 0 7.362.972 10.656 2.874 4.946 2.856 8.484 7.466 9.962 12.983s.719 11.279-2.136 16.225l-9.029 15.639c-6.341-4.33-13.018-8.249-20.019-11.703-5.948-2.935-12.02-5.48-18.185-7.653zm-112.932 460.755c-24.401 0-44.253-19.852-44.253-44.253 0-7.149 1.71-13.903 4.735-19.884l79.324 39.145c-7.17 14.775-22.308 24.992-39.806 24.992zm128.739-20.984-.399.808c-3.556 7.208-12.314 10.179-19.523 6.621l-315.376-155.631c-3.492-1.723-6.104-4.702-7.354-8.39-1.251-3.687-.991-7.641.735-11.137l.395-.802c3.558-7.208 12.315-10.179 19.524-6.621l315.376 155.63c7.207 3.558 10.178 12.317 6.622 19.522zm47.711-193.184c-.188.38-19.225 39.228-35.472 82.495-11.096 29.549-17.291 51.419-20.347 67.819l-291.802-143.998c10.286-11.615 22.534-28.341 37.202-52.397 19.93-32.682 36.773-66.484 45.04-83.724.229-.478.38-.793.448-.931 18.183-36.847 49.09-64.653 87.026-78.294 37.805-13.595 78.077-11.483 113.397 5.948 35.32 17.429 61.495 48.107 73.705 86.382 12.252 38.409 8.985 79.854-9.197 116.7z"/>
            <path d="m203.271 148.099c-2.241 0-4.495-.738-6.372-2.257-4.354-3.523-5.029-9.908-1.507-14.262 9.499-11.743 20.72-21.879 33.35-30.126 4.688-3.063 10.974-1.743 14.035 2.947 3.062 4.69 1.743 10.973-2.947 14.035-10.857 7.089-20.503 15.803-28.67 25.899-2.003 2.477-4.933 3.764-7.889 3.764z"/>
            <path d="m265.174 105.244c-4.265 0-8.233-2.712-9.634-6.985-1.745-5.322 1.156-11.05 6.478-12.795 3.853-1.263 7.815-2.371 11.776-3.294 5.454-1.272 10.907 2.119 12.177 7.574 1.271 5.454-2.12 10.906-7.574 12.178-3.384.789-6.77 1.735-10.061 2.814-1.05.344-2.115.508-3.162.508z"/>
        </g>
    </symbol>


    <!--  Open box  -->
    <symbol viewBox="0 0 74 74" id="open_box">
        <g>
            <path d="m37.008 66.474a1 1 0 0 1 -1-1v-27.28a1 1 0 0 1 2 0v25.912l24.092-7.666v-17.06a1 1 0 0 1 2 0v17.791a1 1 0 0 1 -.7.953l-26.094 8.3a1.01 1.01 0 0 1 -.298.05z"/>
            <path d="m45.313 47.5a1 1 0 0 1 -.707-.293l-8.3-8.3a1 1 0 0 1 .329-1.633l26.092-10.681a1 1 0 0 1 1.118.253l7.906 8.7a1 1 0 0 1 -.368 1.6l-25.7 10.282a1 1 0 0 1 -.37.072zm-6.532-8.95 6.773 6.773 23.748-9.5-6.466-7.112z"/>
            <path d="m28.708 47.5a1 1 0 0 1 -.372-.072l-25.697-10.285a1 1 0 0 1 -.368-1.6l7.906-8.7a1 1 0 0 1 1.118-.253l26.094 10.678a1 1 0 0 1 .329 1.633l-8.3 8.3a1 1 0 0 1 -.71.299zm-23.988-11.679 23.748 9.5 6.772-6.771-24.054-9.84z"/>
            <path d="m37.008 66.474a1.01 1.01 0 0 1 -.3-.047l-26.094-8.3a1 1 0 0 1 -.7-.953v-17.794a1 1 0 0 1 2 0v17.06l24.094 7.667v-25.913a1 1 0 0 1 2 0v27.28a1 1 0 0 1 -1 1z"/>
            <path d="m63.1 28.519a1 1 0 0 1 -.378-.074l-26.09-10.675a1 1 0 0 1 -.329-1.633l8.3-8.3a1 1 0 0 1 1.079-.221l25.7 10.284a1 1 0 0 1 .368 1.6l-7.906 8.7a1 1 0 0 1 -.744.319zm-24.319-12.031 24.055 9.84 6.464-7.111-23.748-9.5z"/>
            <path d="m10.917 28.519a1 1 0 0 1 -.74-.327l-7.906-8.692a1 1 0 0 1 .368-1.6l25.7-10.282a1 1 0 0 1 1.079.221l8.3 8.3a1 1 0 0 1 -.329 1.633l-26.089 10.673a1 1 0 0 1 -.383.074zm-6.2-9.3 6.466 7.112 24.054-9.84-6.77-6.776z"/>
        </g>
    </symbol>


    <!--  Location  -->
    <symbol  viewBox="0 0 368.16 368.16" id="location">
        <g>
            <path d="M184.08,0c-74.992,0-136,61.008-136,136c0,24.688,11.072,51.24,11.536,52.36c3.576,8.488,10.632,21.672,15.72,29.4
				l93.248,141.288c3.816,5.792,9.464,9.112,15.496,9.112s11.68-3.32,15.496-9.104l93.256-141.296
				c5.096-7.728,12.144-20.912,15.72-29.4c0.464-1.112,11.528-27.664,11.528-52.36C320.08,61.008,259.072,0,184.08,0z
				 M293.8,182.152c-3.192,7.608-9.76,19.872-14.328,26.8l-93.256,141.296c-1.84,2.792-2.424,2.792-4.264,0L88.696,208.952
				c-4.568-6.928-11.136-19.2-14.328-26.808C74.232,181.816,64.08,157.376,64.08,136c0-66.168,53.832-120,120-120
				c66.168,0,120,53.832,120,120C304.08,157.408,293.904,181.912,293.8,182.152z"/>
            <path d="M184.08,64.008c-39.704,0-72,32.304-72,72c0,39.696,32.296,72,72,72c39.704,0,72-32.304,72-72
				C256.08,96.312,223.784,64.008,184.08,64.008z M184.08,192.008c-30.872,0-56-25.12-56-56s25.128-56,56-56s56,25.12,56,56
				S214.952,192.008,184.08,192.008z"/>
        </g>
    </symbol>

    <!--  Empty Star  -->
    <symbol  viewBox="0 0 512.001 512.001"  id="empty_star">
        <g>
            <path d="M511.266,197.256c-1.764-5.431-6.458-9.388-12.108-10.209l-158.722-23.065L269.452,20.155
			c-2.527-5.12-7.741-8.361-13.451-8.361c-5.709,0-10.924,3.242-13.451,8.361l-70.988,143.828L12.843,187.047
			c-5.65,0.821-10.344,4.779-12.108,10.209c-1.765,5.43-0.293,11.391,3.795,15.376l114.848,111.955L92.27,482.67
			c-0.965,5.627,1.349,11.315,5.968,14.67c4.618,3.355,10.74,3.798,15.797,1.142L256,423.846l141.961,74.637
			c2.195,1.154,4.591,1.723,6.979,1.723c3.11,0,6.206-0.966,8.818-2.865c4.619-3.356,6.933-9.043,5.968-14.671L392.61,324.587
			l114.86-111.954C511.559,208.647,513.031,202.686,511.266,197.256z M366.023,308.608c-3.536,3.446-5.15,8.412-4.314,13.278
			l23.311,135.898l-122.038-64.162c-4.37-2.297-9.591-2.297-13.961,0l-122.045,64.163l23.304-135.9
			c0.834-4.866-0.779-9.83-4.313-13.276l-98.731-96.244l136.445-19.829c4.886-0.71,9.108-3.778,11.294-8.205L256,60.685
			l61.023,123.645c2.186,4.427,6.408,7.496,11.294,8.206l136.447,19.828L366.023,308.608z"/>
        </g>
    </symbol>

    <!-- File   -->
    <symbol viewBox="0 0 512 512" id="file">
        <g>
            <path d="M447.933,103.629c-0.034-3.076-1.224-6.09-3.485-8.352L352.683,3.511c-0.004-0.004-0.007-0.005-0.011-0.008
			C350.505,1.338,347.511,0,344.206,0H89.278C75.361,0,64.04,11.32,64.04,25.237v461.525c0,13.916,11.32,25.237,25.237,25.237
			h333.444c13.916,0,25.237-11.32,25.237-25.237V103.753C447.96,103.709,447.937,103.672,447.933,103.629z M356.194,40.931
			l50.834,50.834h-49.572c-0.695,0-1.262-0.567-1.262-1.262V40.931z M423.983,486.763c0,0.695-0.566,1.261-1.261,1.261H89.278
			c-0.695,0-1.261-0.566-1.261-1.261V25.237c0-0.695,0.566-1.261,1.261-1.261h242.94v66.527c0,13.916,11.322,25.239,25.239,25.239
			h66.527V486.763z"/>
        </g>
        <g>
            <path d="M362.088,164.014H149.912c-6.62,0-11.988,5.367-11.988,11.988c0,6.62,5.368,11.988,11.988,11.988h212.175
			c6.62,0,11.988-5.368,11.988-11.988C374.076,169.381,368.707,164.014,362.088,164.014z"/>
        </g>
        <g>
            <path d="M362.088,236.353H149.912c-6.62,0-11.988,5.368-11.988,11.988c0,6.62,5.368,11.988,11.988,11.988h212.175
			c6.62,0,11.988-5.368,11.988-11.988C374.076,241.721,368.707,236.353,362.088,236.353z"/>
        </g>
        <g>
            <path d="M362.088,308.691H149.912c-6.62,0-11.988,5.368-11.988,11.988c0,6.621,5.368,11.988,11.988,11.988h212.175
			c6.62,0,11.988-5.367,11.988-11.988C374.076,314.06,368.707,308.691,362.088,308.691z"/>
        </g>
        <g>
            <path d="M256,381.031H149.912c-6.62,0-11.988,5.368-11.988,11.988c0,6.621,5.368,11.988,11.988,11.988H256
			c6.62,0,11.988-5.367,11.988-11.988C267.988,386.398,262.62,381.031,256,381.031z"/>
        </g>
    </symbol>


    <!--  Edit   -->
    <symbol viewBox="0 0 512 512" id="edit">
        <g>
            <path d="m368 511.957031h-309.332031c-32.363281 0-58.667969-26.304687-58.667969-58.667969v-309.332031c0-32.363281 26.304688-58.667969 58.667969-58.667969h181.332031c8.832031 0 16 7.167969 16 16 0 8.832032-7.167969 16-16 16h-181.332031c-14.699219 0-26.667969 11.96875-26.667969 26.667969v309.332031c0 14.699219 11.96875 26.667969 26.667969 26.667969h309.332031c14.699219 0 26.667969-11.96875 26.667969-26.667969v-181.332031c0-8.832031 7.167969-16 16-16s16 7.148438 16 16v181.332031c0 32.363282-26.304688 58.667969-58.667969 58.667969zm0 0"/>
            <path d="m187.136719 340.820312c-4.203125 0-8.300781-1.664062-11.308594-4.691406-3.796875-3.777344-5.417969-9.21875-4.371094-14.445312l15.082031-75.433594c.617188-3.113281 2.152344-5.953125 4.371094-8.171875l220.953125-220.925781c22.867188-22.871094 60.074219-22.871094 82.964844 0 11.070313 11.070312 17.171875 25.792968 17.171875 41.472656s-6.101562 30.398438-17.195312 41.472656l-220.925782 220.949219c-2.21875 2.238281-5.078125 3.753906-8.171875 4.371094l-75.414062 15.082031c-1.046875.214844-2.113281.320312-3.15625.320312zm75.433593-31.082031h.214844zm-45.609374-52.457031-9.410157 47.144531 47.125-9.429687 217.515625-217.511719c5.035156-5.058594 7.808594-11.734375 7.808594-18.859375s-2.773438-13.804688-7.808594-18.859375c-10.367187-10.390625-27.285156-10.390625-37.714844 0zm0 0"/>
            <path d="m453.332031 134.976562c-4.09375 0-8.191406-1.558593-11.304687-4.695312l-60.332032-60.351562c-6.25-6.25-6.25-16.382813 0-22.632813s16.382813-6.25 22.636719 0l60.328125 60.351563c6.25 6.25 6.25 16.382812 0 22.632812-3.136718 3.117188-7.230468 4.695312-11.328125 4.695312zm0 0"/>
        </g>
    </symbol>

    <!--  Lock  -->
    <symbol  viewBox="0 0 512 512" id="lock">
        <g>
            <path d="M400,188h-36.037v-82.23c0-58.322-48.449-105.77-108-105.77c-59.551,0-108,47.448-108,105.77V188H112
			c-33.084,0-60,26.916-60,60v204c0,33.084,26.916,60,60,60h288c33.084,0,60-26.916,60-60V248C460,214.916,433.084,188,400,188z
			 M187.963,105.77c0-36.266,30.505-65.77,68-65.77s68,29.504,68,65.77V188h-136V105.77z M420,452c0,11.028-8.972,20-20,20H112
			c-11.028,0-20-8.972-20-20V248c0-11.028,8.972-20,20-20h288c11.028,0,20,8.972,20,20V452z"/>
        </g>
        <g>
            <path d="M256,286c-20.435,0-37,16.565-37,37c0,13.048,6.76,24.51,16.963,31.098V398c0,11.045,8.954,20,20,20
			c11.045,0,20-8.955,20-20v-43.855C286.207,347.565,293,336.08,293,323C293,302.565,276.435,286,256,286z"/>

        </g>
    </symbol>


    <!-- Orders -->
    <symbol viewBox="0 0 64 64"  id="orders">
        <g>
            <path d="m60 39h-15v-11.586l16.257-16.257c1.124-1.124 1.743-2.618 1.743-4.207 0-3.281-2.669-5.95-5.95-5.95-1.589 0-3.083.619-4.207 1.742l-7.843 7.843v-2.585c0-2.757-2.243-5-5-5h-7.184c-.414-1.161-1.514-2-2.816-2h-14c-1.302 0-2.402.839-2.816 2h-7.184c-2.757 0-5 2.243-5 5v42c0 2.757 2.243 5 5 5h27v5c0 1.654 1.346 3 3 3h24c1.654 0 3-1.346 3-3v-18c0-1.654-1.346-3-3-3zm-11 4v2h-2v-2h-2v2h-2v-4h10v4h-2v-2zm-16-1v7h-26v-40h6.184c.414 1.161 1.514 2 2.816 2h14c1.302 0 2.402-.839 2.816-2h6.184v7.586l-10.86 10.86-2.968 7.914c-.114.303-.172.621-.172.947 0 1.485 1.208 2.693 2.693 2.693.325 0 .644-.058.945-.171l7.915-2.969 2.447-2.446v5.586h-3c-1.654 0-3 1.346-3 3zm3-8.414-2.086-2.086 16.586-16.586 2.086 2.086zm-6.609-3.781 4.804 4.804-6.26 2.348c-.424.157-.935-.185-.935-.65 0-.084.015-.165.044-.242zm19.023-19.805 1.586-1.586 5.586 5.586-1.586 1.586zm.672 3.5-16.586 16.586-2.086-2.086 16.586-16.586zm-6.086 25.5h-2v-7.586l2-2zm11.257-34.843c.746-.746 1.738-1.157 2.793-1.157 2.178 0 3.95 1.772 3.95 3.95 0 1.055-.411 2.047-1.157 2.793l-2.843 2.843-5.586-5.586zm-11.257 3.843v4.585l-2 2v-5.585c0-1.103-.897-2-2-2h-6v-2h7c1.654 0 3 1.346 3 3zm-28-4c0-.551.448-1 1-1h14c.552 0 1 .449 1 1v4c0 .551-.448 1-1 1h-14c-.552 0-1-.449-1-1zm-9 49c-1.654 0-3-1.346-3-3v-42c0-1.654 1.346-3 3-3h7v2h-6c-1.103 0-2 .897-2 2v40c0 1.103.897 2 2 2h26v2zm55 7c0 .552-.448 1-1 1h-24c-.552 0-1-.448-1-1v-18c0-.552.448-1 1-1h5v6h14v-6h5c.552 0 1 .448 1 1z"/>
            <path d="m49 57h2v2h-2z"/>
            <path d="m57 57h2v2h-2z"/>
            <path d="m53 57h2v2h-2z"/>
            <path d="m49 53h10v2h-10z"/>
            <path d="m20.293 11.293-1.707 1.707h-9.586v10h10v-7.586l2.707-2.707zm-3.293 9.707h-6v-6h5.586l-2.586 2.586-1.293-1.293-1.414 1.414 2.707 2.707 3-3z"/>
            <path d="m9 35h10v-10h-10zm2-8h6v6h-6z"/>
            <path d="m9 47h10v-10h-10zm2-8h6v6h-6z"/>
            <path d="m23 13h8v2h-8z"/>
            <path d="m23 17h8v2h-8z"/>
            <path d="m23 21h8v2h-8z"/>
            <path d="m23 41h8v2h-8z"/>
            <path d="m23 45h8v2h-8z"/>
        </g>
    </symbol>

    <!--  Left icon -->
    <symbol  viewBox="0 0 240.823 240.823" id="left">
        <g>
            <path id="Chevron_Right" d="M57.633,129.007L165.93,237.268c4.752,4.74,12.451,4.74,17.215,0c4.752-4.74,4.752-12.439,0-17.179
		l-99.707-99.671l99.695-99.671c4.752-4.74,4.752-12.439,0-17.191c-4.752-4.74-12.463-4.74-17.215,0L57.621,111.816
		C52.942,116.507,52.942,124.327,57.633,129.007z"/>
        </g>
    </symbol>


    <!-- Right icon -->
    <symbol  viewBox="0 0 330 330" id="right">
        <g>
            <path id="XMLID_222_" d="M250.606,154.389l-150-149.996c-5.857-5.858-15.355-5.858-21.213,0.001
	c-5.857,5.858-5.857,15.355,0.001,21.213l139.393,139.39L79.393,304.394c-5.857,5.858-5.857,15.355,0.001,21.213
	C82.322,328.536,86.161,330,90,330s7.678-1.464,10.607-4.394l149.999-150.004c2.814-2.813,4.394-6.628,4.394-10.606
	C255,161.018,253.42,157.202,250.606,154.389z"/>
        </g>
    </symbol>

    <!--   Delete  -->
    <symbol viewBox="-47 0 512 512" id="delete">
        <g>
            <path d="m416.875 114.441406-11.304688-33.886718c-4.304687-12.90625-16.339843-21.578126-29.941406-21.578126h-95.011718v-30.933593c0-15.460938-12.570313-28.042969-28.027344-28.042969h-87.007813c-15.453125 0-28.027343 12.582031-28.027343 28.042969v30.933593h-95.007813c-13.605469 0-25.640625 8.671876-29.945313 21.578126l-11.304687 33.886718c-2.574219 7.714844-1.2695312 16.257813 3.484375 22.855469 4.753906 6.597656 12.445312 10.539063 20.578125 10.539063h11.816406l26.007813 321.605468c1.933594 23.863282 22.183594 42.558594 46.109375 42.558594h204.863281c23.921875 0 44.175781-18.695312 46.105469-42.5625l26.007812-321.601562h6.542969c8.132812 0 15.824219-3.941407 20.578125-10.535157 4.753906-6.597656 6.058594-15.144531 3.484375-22.859375zm-249.320312-84.441406h83.0625v28.976562h-83.0625zm162.804687 437.019531c-.679687 8.402344-7.796875 14.980469-16.203125 14.980469h-204.863281c-8.40625 0-15.523438-6.578125-16.203125-14.980469l-25.816406-319.183593h288.898437zm-298.566406-349.183593 9.269531-27.789063c.210938-.640625.808594-1.070313 1.484375-1.070313h333.082031c.675782 0 1.269532.429688 1.484375 1.070313l9.269531 27.789063zm0 0"/>
            <path d="m282.515625 465.957031c.265625.015625.527344.019531.792969.019531 7.925781 0 14.550781-6.210937 14.964844-14.21875l14.085937-270.398437c.429687-8.273437-5.929687-15.332031-14.199219-15.761719-8.292968-.441406-15.328125 5.925782-15.761718 14.199219l-14.082032 270.398437c-.429687 8.273438 5.925782 15.332032 14.199219 15.761719zm0 0"/>
            <path d="m120.566406 451.792969c.4375 7.996093 7.054688 14.183593 14.964844 14.183593.273438 0 .554688-.007812.832031-.023437 8.269531-.449219 14.609375-7.519531 14.160157-15.792969l-14.753907-270.398437c-.449219-8.273438-7.519531-14.613281-15.792969-14.160157-8.269531.449219-14.609374 7.519532-14.160156 15.792969zm0 0"/>
            <path d="m209.253906 465.976562c8.285156 0 15-6.714843 15-15v-270.398437c0-8.285156-6.714844-15-15-15s-15 6.714844-15 15v270.398437c0 8.285157 6.714844 15 15 15zm0 0"/>

        </g>
    </symbol>


    <!-- Check   -->
    <symbol viewBox="0 0 426.667 426.667" id="check">
        <g>
            <path d="M421.876,56.307c-6.548-6.78-17.352-6.968-24.132-0.42c-0.142,0.137-0.282,0.277-0.42,0.42L119.257,334.375
			l-90.334-90.334c-6.78-6.548-17.584-6.36-24.132,0.42c-6.388,6.614-6.388,17.099,0,23.713l102.4,102.4
			c6.665,6.663,17.468,6.663,24.132,0L421.456,80.44C428.236,73.891,428.424,63.087,421.876,56.307z"/>
        </g>
    </symbol>


    <!--  Gps  -->
    <symbol viewBox="0 0 74 74"  id="gps">
        <g>
            <path d="m37 63.5a1 1 0 0 1 -.758-.348c-.028-.032-2.846-3.314-6.356-8.079-6.786-9.2-14.876-22.062-14.876-31.083a21.979 21.979 0 0 1 39.906-12.728 1 1 0 0 1 -1.633 1.156 19.979 19.979 0 0 0 -36.273 11.572c0 6.614 5.144 17.232 14.485 29.9 2.388 3.241 4.447 5.783 5.5 7.059 1.058-1.276 3.116-3.817 5.505-7.058 5.281-7.161 11.982-17.423 13.938-25.671a1 1 0 1 1 1.945.461c-2.032 8.577-8.883 19.087-14.269 26.392-3.51 4.765-6.328 8.047-6.356 8.079a1 1 0 0 1 -.758.348z"/>
            <path d="m57.81 22.255a1 1 0 0 1 -1-.923 17.2 17.2 0 0 0 -.552-2.673.975.975 0 0 1 -.04-.279 1 1 0 0 1 1.979-.214 19.225 19.225 0 0 1 .6 2.963 1.209 1.209 0 0 1 .007.121 1 1 0 0 1 -.994 1.005z"/>
            <path d="m37 39.713a15.643 15.643 0 1 1 15.643-15.643 15.661 15.661 0 0 1 -15.643 15.643zm0-29.285a13.643 13.643 0 1 0 13.643 13.642 13.659 13.659 0 0 0 -13.643-13.642z"/>
            <path d="m48.9 33.6a1 1 0 0 1 -.814-.418 13.492 13.492 0 0 0 -10.944-5.711.171.171 0 0 1 -.032 0h-.256a13.492 13.492 0 0 0 -10.944 5.711 1 1 0 0 1 -1.627-1.163 15.677 15.677 0 0 1 12.551-6.548h.031.3a15.677 15.677 0 0 1 12.551 6.548 1 1 0 0 1 -.233 1.395.988.988 0 0 1 -.583.186z"/>
            <path d="m37 27.482a6.167 6.167 0 1 1 6.166-6.167 6.173 6.173 0 0 1 -6.166 6.167zm0-10.333a4.167 4.167 0 1 0 4.166 4.166 4.171 4.171 0 0 0 -4.166-4.166z"/>
            <path d="m37 72c-11.285 0-20.125-4.173-20.125-9.5 0-4.185 5.362-7.722 13.66-9.01a1 1 0 1 1 .307 1.976c-7.042 1.095-11.967 3.987-11.967 7.034 0 3.622 7.283 7.5 18.125 7.5s18.125-3.878 18.125-7.5c0-3.047-4.921-5.939-11.967-7.034a1 1 0 1 1 .307-1.976c8.3 1.288 13.66 4.825 13.66 9.01 0 5.327-8.84 9.5-20.125 9.5z"/>
        </g>
    </symbol>


    <!-- Notification -->
    <symbol viewBox="0 0 55 60"  id="notification">
        <g>
            <path id="Shape"
                  d="m3.41 53h11.649c.5227105 4.5425323 4.3684924 7.9711565 8.941 7.9711565s8.4182895-3.4286242 8.941-7.9711565h11.649c1.1828216.0115793 2.257869-.6854294 2.73-1.77.4948455-1.1045593.2814461-2.3979488-.542-3.285-2.7918041-2.9982872-4.4772873-6.859236-4.778-10.945v-4.527c6.0916768-1.5575128 10.7045999-6.5413267 11.7873118-12.7350419 1.0827119-6.1937151-1.5658918-12.4469031-6.7679248-15.97864835-5.2020331-3.53174525-11.9912635-3.68605699-17.348387-.39430975-1.4946663-1.51993067-3.5392968-2.37261116-5.671-2.365-4.4162219.00495988-7.9950401 3.58377808-8 8 .0000935.29268224.0164521.58513313.049.876-6.14437276 3.0252389-10.039586 9.2752557-10.049 16.124v11c-.29001903 4.0896766-1.97773941 7.9551918-4.78 10.948-.8222438.8865401-1.03485641 2.1787523-.54 3.282.472131 1.0845706 1.54717836 1.7815793 2.73 1.77zm20.59 6c-3.478237-.004328-6.4274337-2.5581135-6.929-6h13.858c-.5015663 3.4418865-3.450763 5.995672-6.929 6zm28-42c-.0082673 7.7285595-6.2714405 13.9917327-14 14-1.8141395.0051942-3.6115871-.3464803-5.29-1.035-.2230012-.0912395-.4712734-.0997516-.7-.024l-7.36 2.459 2.23-6.14c.1148451-.3158242.0633764-.6682156-.137-.938-1.7912581-2.4038409-2.7538252-5.3241776-2.743-8.322.0000002-7.73198638 6.2680136-13.9999997 14-13.9999997s13.9999998 6.26801332 14 13.9999997zm-34-8c.0033074-3.31233757 2.6876624-5.99669262 6-6 1.4753094-.00249914 2.8984647.54558144 3.991 1.537-1.2439841.99757566-2.3328692 2.17442087-3.231 3.492-.254-.011-.505-.029-.76-.029-2.0452784.0039054-4.0747228.35871993-6 1.049 0-.016 0-.032 0-.049zm-15.3 40.3c3.15087677-3.3539313 5.0262931-7.7063126 5.3-12.3v-11c.01323041-8.6829917 6.9454959-15.7727482 15.626-15.981-2.5368992 5.1733733-2.0802399 11.3137974 1.194 16.055l-2.048 5.637c-.2250755.6123247-.1373594 1.2959409.235017 1.8316053s.9826066.8560459 1.634983.8583947c.2153109.0006518.4293428-.0331072.634-.1l7.024-2.347c2.4495986.9448655 5.0978982 1.2568145 7.7.907v4.139c.2750432 4.5910076 2.1504032 8.9404274 5.3 12.292.2857513.3032643.3610945.7486174.191 1.129-.1524203.3596872-.5094893.5894016-.9.579h-41.181c-.39051069.0104016-.74757971-.2193128-.9-.579-.1676002-.3779077-.09276664-.8194257.19-1.121z"/>
            <path id="Shape"
                  d="m7 49h4c.5522847 0 1-.4477153 1-1s-.4477153-1-1-1h-4c-.55228475 0-1 .4477153-1 1s.44771525 1 1 1z"/>
            <path id="Shape"
                  d="m14 48c0 .5522847.4477153 1 1 1h26c.5522847 0 1-.4477153 1-1s-.4477153-1-1-1h-26c-.5522847 0-1 .4477153-1 1z"/>
            <path id="Shape"
                  d="m11 27c.5522847 0 1-.4477153 1-1-.00465-3.6464724 1.655319-7.0956582 4.508-9.367.2863768-.2209808.4310919-.5793891.3784392-.9372604-.0526527-.3578712-.2944643-.6594108-.6323526-.7885451s-.7191741-.0657303-.9970866.1658055c-3.3276808 2.6495128-5.2635679 6.673374-5.257 10.927 0 .2652165.1053568.5195704.2928932.7071068s.4418903.2928932.7071068.2928932z"/>
            <path id="Shape"
                  d="m27 17c0 1.6568542 1.3431458 3 3 3s3-1.3431458 3-3-1.3431458-3-3-3-3 1.3431458-3 3zm3-1c.5522847 0 1 .4477153 1 1s-.4477153 1-1 1-1-.4477153-1-1 .4477153-1 1-1z"/>
            <path id="Shape"
                  d="m38 20c1.6568542 0 3-1.3431458 3-3s-1.3431458-3-3-3-3 1.3431458-3 3 1.3431458 3 3 3zm0-4c.5522847 0 1 .4477153 1 1s-.4477153 1-1 1-1-.4477153-1-1 .4477153-1 1-1z"/>
            <path id="Shape"
                  d="m46 20c1.6568542 0 3-1.3431458 3-3s-1.3431458-3-3-3-3 1.3431458-3 3 1.3431458 3 3 3zm0-4c.5522847 0 1 .4477153 1 1s-.4477153 1-1 1-1-.4477153-1-1 .4477153-1 1-1z"/>
        </g>
    </symbol>

    <!--  Register user  -->
    <symbol viewBox="0 0 512 512" id="register_user">
        <g>
            <path d="m49.5 512c-11.046 0-20-8.954-20-20 0-100.355 81.645-182 182-182h30c20.537 0 40.703 3.4 59.937 10.105 10.43 3.636 15.938 15.04 12.301 25.469-3.636 10.43-15.04 15.938-25.469 12.301-14.991-5.225-30.726-7.875-46.769-7.875h-30c-78.299 0-142 63.701-142 142 0 11.046-8.954 20-20 20zm310-377c0-74.439-60.561-135-135-135s-135 60.561-135 135 60.561 135 135 135 135-60.561 135-135zm-40 0c0 52.383-42.617 95-95 95s-95-42.617-95-95 42.617-95 95-95 95 42.617 95 95zm143 257h-60v-60c0-11.046-8.954-20-20-20s-20 8.954-20 20v60h-60c-11.046 0-20 8.954-20 20s8.954 20 20 20h60v60c0 11.046 8.954 20 20 20s20-8.954 20-20v-60h60c11.046 0 20-8.954 20-20s-8.954-20-20-20z"/>
        </g>
    </symbol>

    <!-- Menu List For Catalog width < 770 px -->
<symbol  viewBox="0 0 60.123 60.123" id="menu_list">
    <g>
        <path d="M57.124,51.893H16.92c-1.657,0-3-1.343-3-3s1.343-3,3-3h40.203c1.657,0,3,1.343,3,3S58.781,51.893,57.124,51.893z"/>
        <path d="M57.124,33.062H16.92c-1.657,0-3-1.343-3-3s1.343-3,3-3h40.203c1.657,0,3,1.343,3,3
		C60.124,31.719,58.781,33.062,57.124,33.062z"/>
        <path d="M57.124,14.231H16.92c-1.657,0-3-1.343-3-3s1.343-3,3-3h40.203c1.657,0,3,1.343,3,3S58.781,14.231,57.124,14.231z"/>
        <circle cx="4.029" cy="11.463" r="4.029"/>
        <circle cx="4.029" cy="30.062" r="4.029"/>
        <circle cx="4.029" cy="48.661" r="4.029"/>
    </g>
</symbol>

    <!-- Left,Right, Top, Bottom icon-->
    <symbol viewBox="0 0 443.52 443.52" id="left">
        <g>
            <path d="M143.492,221.863L336.226,29.129c6.663-6.664,6.663-17.468,0-24.132c-6.665-6.662-17.468-6.662-24.132,0l-204.8,204.8
			c-6.662,6.664-6.662,17.468,0,24.132l204.8,204.8c6.78,6.548,17.584,6.36,24.132-0.42c6.387-6.614,6.387-17.099,0-23.712
			L143.492,221.863z"/>
        </g>
    </symbol>

    <!-- Filter -->
    <symbol  viewBox="-1 0 512 512.00018" id="filter">
        <g>
            <path d="m490.121094 3.300781-469.960938-3.300781c-.046875 0-.09375 0-.140625 0-17.207031 0-26.375 20.382812-14.96875 33.257812l169.382813 191.28125v267.445313c0 18.292969 22.554687 26.917969 34.796875 13.453125l119.484375-131.421875c3.347656-3.683594 5.203125-8.480469 5.203125-13.453125v-135.871094l170.859375-187.9375c11.613281-12.773437 2.605468-33.328125-14.65625-33.453125zm-191 200.203125c-3.347656 3.679688-5.203125 8.476563-5.203125 13.453125v135.871094l-79.484375 87.429687v-223.300781c0-4.886719-1.789063-9.601562-5.027344-13.257812l-144.683594-163.386719 380.332032 2.671875zm0 0"/>
        </g>
    </symbol>

    <!-- Open book -->
    <symbol viewBox="0 0 412.72 412.72" id="open_book">
        <g>
            <path d="M404.72,82.944c-0.027,0-0.054,0-0.08,0h0h-27.12v-9.28c0.146-3.673-2.23-6.974-5.76-8
			c-18.828-4.934-38.216-7.408-57.68-7.36c-32,0-75.6,7.2-107.84,40c-32-33.12-75.92-40-107.84-40
			c-19.464-0.048-38.852,2.426-57.68,7.36c-3.53,1.026-5.906,4.327-5.76,8v9.2H8c-4.418,0-8,3.582-8,8v255.52c0,4.418,3.582,8,8,8
			c1.374-0.004,2.724-0.362,3.92-1.04c0.8-0.4,80.8-44.16,192.48-16h1.2h0.72c0.638,0.077,1.282,0.077,1.92,0
			c112-28.4,192,15.28,192.48,16c2.475,1.429,5.525,1.429,8,0c2.46-1.42,3.983-4.039,4-6.88V90.944
			C412.72,86.526,409.139,82.944,404.72,82.944z M16,333.664V98.944h19.12v200.64c-0.05,4.418,3.491,8.04,7.909,8.09
			c0.432,0.005,0.864-0.025,1.291-0.09c16.55-2.527,33.259-3.864,50-4c23.19-0.402,46.283,3.086,68.32,10.32
			C112.875,307.886,62.397,314.688,16,333.664z M94.32,287.664c-14.551,0.033-29.085,0.968-43.52,2.8V79.984
			c15.576-3.47,31.482-5.241,47.44-5.28c29.92,0,71.2,6.88,99.84,39.2l0.24,199.28C181.68,302.304,149.2,287.664,94.32,287.664z
			 M214.32,113.904c28.64-32,69.92-39.2,99.84-39.2c15.957,0.047,31.863,1.817,47.44,5.28v210.48
			c-14.354-1.849-28.808-2.811-43.28-2.88c-54.56,0-87.12,14.64-104,25.52V113.904z M396.64,333.664
			c-46.496-19.028-97.09-25.831-146.96-19.76c22.141-7.26,45.344-10.749,68.64-10.32c16.846,0.094,33.663,1.404,50.32,3.92
			c4.368,0.663,8.447-2.341,9.11-6.709c0.065-0.427,0.095-0.859,0.09-1.291V98.944h19.12L396.64,333.664z"/>
        </g>
    </symbol>

    <!--  Empty heart  -->
    <symbol viewBox="0 -28 512.001 512" id="empty_heart">
        <g>
            <path d="m256 455.515625c-7.289062 0-14.316406-2.640625-19.792969-7.4375-20.683593-18.085937-40.625-35.082031-58.21875-50.074219l-.089843-.078125c-51.582032-43.957031-96.125-81.917969-127.117188-119.3125-34.644531-41.804687-50.78125-81.441406-50.78125-124.742187 0-42.070313 14.425781-80.882813 40.617188-109.292969 26.503906-28.746094 62.871093-44.578125 102.414062-44.578125 29.554688 0 56.621094 9.34375 80.445312 27.769531 12.023438 9.300781 22.921876 20.683594 32.523438 33.960938 9.605469-13.277344 20.5-24.660157 32.527344-33.960938 23.824218-18.425781 50.890625-27.769531 80.445312-27.769531 39.539063 0 75.910156 15.832031 102.414063 44.578125 26.191406 28.410156 40.613281 67.222656 40.613281 109.292969 0 43.300781-16.132812 82.9375-50.777344 124.738281-30.992187 37.398437-75.53125 75.355469-127.105468 119.308594-17.625 15.015625-37.597657 32.039062-58.328126 50.167969-5.472656 4.789062-12.503906 7.429687-19.789062 7.429687zm-112.96875-425.523437c-31.066406 0-59.605469 12.398437-80.367188 34.914062-21.070312 22.855469-32.675781 54.449219-32.675781 88.964844 0 36.417968 13.535157 68.988281 43.882813 105.605468 29.332031 35.394532 72.960937 72.574219 123.476562 115.625l.09375.078126c17.660156 15.050781 37.679688 32.113281 58.515625 50.332031 20.960938-18.253907 41.011719-35.34375 58.707031-50.417969 50.511719-43.050781 94.136719-80.222656 123.46875-115.617188 30.34375-36.617187 43.878907-69.1875 43.878907-105.605468 0-34.515625-11.605469-66.109375-32.675781-88.964844-20.757813-22.515625-49.300782-34.914062-80.363282-34.914062-22.757812 0-43.652344 7.234374-62.101562 21.5-16.441406 12.71875-27.894532 28.796874-34.609375 40.046874-3.453125 5.785157-9.53125 9.238282-16.261719 9.238282s-12.808594-3.453125-16.261719-9.238282c-6.710937-11.25-18.164062-27.328124-34.609375-40.046874-18.449218-14.265626-39.34375-21.5-62.097656-21.5zm0 0"/>
        </g>
    </symbol>


    <!--  Info  -->
    <symbol    viewBox="0 0 330 330" id="info">
        <g>
            <path d="M165,0C74.019,0,0,74.02,0,165.001C0,255.982,74.019,330,165,330s165-74.018,165-164.999C330,74.02,255.981,0,165,0z
		 M165,300c-74.44,0-135-60.56-135-134.999C30,90.562,90.56,30,165,30s135,60.562,135,135.001C300,239.44,239.439,300,165,300z"/>
            <path d="M164.998,70c-11.026,0-19.996,8.976-19.996,20.009c0,11.023,8.97,19.991,19.996,19.991
		c11.026,0,19.996-8.968,19.996-19.991C184.994,78.976,176.024,70,164.998,70z"/>
            <path d="M165,140c-8.284,0-15,6.716-15,15v90c0,8.284,6.716,15,15,15c8.284,0,15-6.716,15-15v-90C180,146.716,173.284,140,165,140z
		"/>
        </g>
    </symbol>


    <!--   Comment  -->
    <symbol  viewBox="0 0 511.999 511.999"  id="comment">
        <g>
            <path d="M510.156,401.843L480.419,315.3c14.334-29.302,21.909-61.89,21.96-94.679c0.088-57.013-21.97-110.92-62.112-151.79
			C400.117,27.953,346.615,4.942,289.615,4.039C230.51,3.105,174.954,25.587,133.187,67.353
			c-40.274,40.273-62.612,93.366-63.319,150.102C30.174,247.341,6.745,293.936,6.822,343.705
			c0.037,23.29,5.279,46.441,15.212,67.376L1.551,470.689c-3.521,10.247-0.949,21.373,6.713,29.035
			c5.392,5.393,12.501,8.264,19.812,8.264c3.076,0,6.188-0.508,9.223-1.551l59.609-20.483c20.935,9.933,44.086,15.175,67.376,15.212
			c0.084,0,0.164,0,0.248,0c50.51-0.002,97.46-24.035,127.237-64.702c30.987-0.816,61.646-8.317,89.363-21.876l86.544,29.738
			c3.606,1.239,7.304,1.843,10.959,1.843c8.688,0,17.136-3.412,23.545-9.822C511.284,427.242,514.34,414.021,510.156,401.843z
			 M164.53,470.69c-0.065,0-0.134,0-0.199,0c-20.614-0.031-41.085-5.113-59.196-14.695c-3.724-1.969-8.096-2.31-12.078-0.942
			l-61.123,21.003l21.003-61.122c1.368-3.983,1.028-8.355-0.942-12.078c-9.582-18.112-14.664-38.582-14.696-59.197
			c-0.051-33.159,12.848-64.588,35.405-88.122c7.368,44.916,28.775,86.306,61.957,118.898
			c32.937,32.351,74.339,52.949,119.011,59.683C230.084,457.367,198.288,470.69,164.53,470.69z M480.628,414.797
			c-0.867,0.867-1.895,1.103-3.051,0.705l-92.648-31.836c-1.609-0.553-3.283-0.827-4.951-0.827c-2.459,0-4.909,0.595-7.126,1.769
			c-26.453,13.994-56.345,21.416-86.447,21.462c-0.099,0-0.189,0-0.288,0c-100.863,0-184.176-81.934-185.774-182.773
			c-0.805-50.785,18.513-98.514,54.394-134.395c35.881-35.881,83.618-55.192,134.396-54.392
			c100.936,1.601,182.926,85.068,182.77,186.063c-0.047,30.102-7.468,59.995-21.461,86.446c-1.97,3.723-2.31,8.095-0.942,12.078
			l31.835,92.648C481.732,412.905,481.494,413.932,480.628,414.797z"/>
        </g>
    </symbol>


    <!--  Eye   -->
<symbol  viewBox="0 0 511.999 511.999" id="eye">
    <g>
        <path d="M508.745,246.041c-4.574-6.257-113.557-153.206-252.748-153.206S7.818,239.784,3.249,246.035
			c-4.332,5.936-4.332,13.987,0,19.923c4.569,6.257,113.557,153.206,252.748,153.206s248.174-146.95,252.748-153.201
			C513.083,260.028,513.083,251.971,508.745,246.041z M255.997,385.406c-102.529,0-191.33-97.533-217.617-129.418
			c26.253-31.913,114.868-129.395,217.617-129.395c102.524,0,191.319,97.516,217.617,129.418
			C447.361,287.923,358.746,385.406,255.997,385.406z"/>
    </g>
    <g>
        <path d="M255.997,154.725c-55.842,0-101.275,45.433-101.275,101.275s45.433,101.275,101.275,101.275
			s101.275-45.433,101.275-101.275S311.839,154.725,255.997,154.725z M255.997,323.516c-37.23,0-67.516-30.287-67.516-67.516
			s30.287-67.516,67.516-67.516s67.516,30.287,67.516,67.516S293.227,323.516,255.997,323.516z"/>
    </g>
</symbol>


    <!--  Calendar  -->
    <symbol viewBox="0 0 512 512" id="calendar">
        <g>
            <path d="m453.332031 512h-394.664062c-32.363281 0-58.667969-26.304688-58.667969-58.667969v-352c0-32.363281 26.304688-58.664062 58.667969-58.664062h394.664062c32.363281 0 58.667969 26.300781 58.667969 58.664062v352c0 32.363281-26.304688 58.667969-58.667969 58.667969zm-394.664062-437.332031c-14.699219 0-26.667969 11.964843-26.667969 26.664062v352c0 14.699219 11.96875 26.667969 26.667969 26.667969h394.664062c14.699219 0 26.667969-11.96875 26.667969-26.667969v-352c0-14.699219-11.96875-26.664062-26.667969-26.664062zm0 0"/>
            <path d="m496 202.667969h-480c-8.832031 0-16-7.167969-16-16s7.167969-16 16-16h480c8.832031 0 16 7.167969 16 16s-7.167969 16-16 16zm0 0"/>
            <path d="m122.667969 128c-8.832031 0-16-7.167969-16-16v-96c0-8.832031 7.167969-16 16-16s16 7.167969 16 16v96c0 8.832031-7.167969 16-16 16zm0 0"/>
            <path d="m389.332031 128c-8.832031 0-16-7.167969-16-16v-96c0-8.832031 7.167969-16 16-16s16 7.167969 16 16v96c0 8.832031-7.167969 16-16 16zm0 0"/>
        </g>
    </symbol>


</svg>